<svg width="105" height="36" viewBox="0 0 105 36" fill="none" xmlns="http://www.w3.org/2000/svg">
<path fill-rule="evenodd" clip-rule="evenodd" d="M17.5501 7C23.6089 7 28.4912 11.8824 28.4912 17.9412C28.4912 22.4706 25.7265 26.3529 21.7854 28.0588C21.5501 28.1765 21.2559 28.2353 21.0207 28.2353C19.903 28.2353 18.9618 27.3529 18.9618 26.1765C18.9618 25.3529 19.4912 24.5882 20.1971 24.2941L20.3736 24.2353C22.7854 23.1765 24.4324 20.7647 24.4324 18C24.3736 14.1765 21.3148 11.1176 17.5501 11.1176C13.7854 11.1176 10.7265 14.1765 10.7265 18C10.7265 20.8235 12.4912 23.2941 14.903 24.2941L15.0207 24.3529C15.7265 24.7059 16.1971 25.4118 16.1971 26.1765C16.1971 27.2941 15.3148 28.2353 14.1383 28.2353C13.8442 28.2353 13.5501 28.1765 13.3736 28.0588C9.37359 26.3529 6.60889 22.4706 6.60889 17.9412C6.60889 11.8824 11.5501 7 17.5501 7ZM17.5501 13.8235C19.8442 13.8235 21.6677 15.6471 21.6677 17.9412C21.6677 20.2353 19.8442 22.0588 17.5501 22.0588C15.2559 22.0588 13.4324 20.2353 13.4324 17.9412C13.4324 15.6471 15.3148 13.8235 17.5501 13.8235Z" fill="#5A6072"/>
<path fill-rule="evenodd" clip-rule="evenodd" d="M68.6112 10.6471V24.7647C68.6112 27.7059 67.4347 29 64.1994 29H62.0818V25.9412H63.9053C64.8465 25.9412 65.1994 25.5882 65.1994 24.7059V10.6471H68.6112ZM47.7288 10.6471V23C47.7288 26.4118 45.1406 29 41.2582 29C38.7288 29 36.5524 28.1176 35.0818 26.5882L37.2582 24.4706C38.1994 25.4118 39.3171 25.9412 41.1994 25.9412C43.0818 25.9412 44.4935 24.7647 44.4935 23.1176V21.8824H44.4347C43.6112 22.8235 42.1994 23.3529 40.5524 23.3529C36.8465 23.3529 34.0229 20.6471 34.0229 17C34.0229 13.4706 36.7288 10.7059 40.4347 10.7059C42.1406 10.7059 43.5524 11.2353 44.4347 12.1176H44.4935V10.6471H47.7288ZM56.4935 10.6471C60.4347 10.6471 63.2582 13.4118 63.2582 17C63.2582 20.5882 60.4347 23.3529 56.4935 23.3529C52.5524 23.3529 49.7288 20.5882 49.7288 17C49.7288 13.4118 52.5524 10.6471 56.4935 10.6471ZM77.0818 10.6471C81.0818 10.6471 83.6112 13.5294 83.6112 17.1176V18.0588H73.8465C73.9053 19.2941 75.4935 20.5882 77.4935 20.5882C78.8465 20.5882 79.7288 20.2353 80.7877 19.2941L83.0229 20.8824C82.0818 22.0588 80.1994 23.2941 77.6112 23.2941C73.3759 23.2941 70.5524 20.7647 70.5524 16.9412C70.6112 13.2941 73.3171 10.6471 77.0818 10.6471ZM88.8465 7V15.6471H88.9053L94.3171 10.5294H98.67L93.0818 15.8824L98.67 23.2941H94.7876L90.9641 17.9412H90.9053L88.8465 19.8824V23.2941H85.6112V7H88.8465ZM56.4935 13.5882C54.3759 13.5882 53.0818 15.0588 53.0818 17C53.0818 18.9412 54.4347 20.4118 56.4935 20.4118C58.6112 20.4118 59.9053 18.9412 59.9053 17C59.9641 15 58.6112 13.5882 56.4935 13.5882ZM41.0818 13.5882C38.8465 13.5882 37.4347 14.9412 37.4347 16.8824C37.4347 19 38.7877 20.2941 40.9641 20.2941C42.9053 20.2941 44.3759 19.1176 44.3759 17.6471V16.2353C44.3759 14.8235 42.8465 13.5882 41.0818 13.5882ZM77.1994 13.3529C75.3759 13.3529 74.1406 14.2941 73.9641 15.7059H80.4347C80.1994 14.2353 78.9641 13.3529 77.1994 13.3529Z" fill="#5A6072"/>
</svg>
