<svg xmlns="http://www.w3.org/2000/svg" width="1440" height="273" fill="none"><g clip-path="url(#a)" opacity=".2"><path fill="#E6F5FF" d="M1438.32 160.719h-79.15c-3.25 0-6.45 1.145-8.95 3.15l-8.1 6.529a14.258 14.258 0 0 1-8.96 3.15h-128.47c-2.85 0-5.59.859-7.99 2.406l-25.15 16.839h266.77v-32.074Z"/><path fill="#E6F5FF" d="M1438.32 193.368h-266.77c-.22 0-.45-.172-.57-.401a.485.485 0 0 1 .23-.63l25.09-16.839a14.688 14.688 0 0 1 8.27-2.52h128.48c3.14 0 6.16-1.088 8.61-3.036l8.1-6.529c2.62-2.119 5.93-3.265 9.35-3.265h79.21c.34 0 .57.23.57.573v32.074c0 .344-.23.573-.57.573Zm-264.88-1.146h264.31v-30.928h-78.58c-3.14 0-6.16 1.088-8.61 3.035l-8.1 6.53c-2.62 2.119-5.93 3.264-9.35 3.264h-128.48c-2.74 0-5.36.802-7.64 2.349l-23.55 15.75ZM83.454 122.004a20.333 20.333 0 0 0-9.808-2.52H-4.422v32.074h84.74c4.22 0 8.325 1.318 11.747 3.723l7.755 5.441h52.007l-68.373-38.718Z"/><path fill="#E6F5FF" d="M151.827 161.178h-51.95c-.114 0-.171 0-.228-.058l-7.756-5.441c-3.364-2.405-7.356-3.665-11.52-3.665H-4.422a.451.451 0 0 1-.456-.459v-32.073c0-.229.171-.459.456-.459h78.01c3.48 0 6.958.917 10.037 2.578 0 0 .057 0 .057.057l68.374 38.718a.52.52 0 0 1 .228.458c0 .172-.285.344-.456.344Zm-51.836-.917h50.182l-67.005-37.916h-.057c-2.965-1.603-6.273-2.462-9.58-2.462H-3.967v31.214h84.34c4.335 0 8.498 1.318 12.033 3.78l7.585 5.384ZM766.56 234.031h-21.099c-4.106 0-8.098-1.203-11.519-3.552l-30.053-20.389c-3.421-2.291-7.413-3.551-11.519-3.551H492.211c-2.623 0-5.189-.516-7.641-1.49l-15.454-6.242a20.396 20.396 0 0 0-7.641-1.49h-40.488c-3.707 0-7.357-1.031-10.55-2.921l-35.869-21.592c-3.193-1.948-6.843-2.921-10.55-2.921H112.879l14.256 10.023c3.479 2.405 7.585 3.723 11.747 3.723H343.66c4.962 0 9.752 1.833 13.515 5.097l24.863 21.879c3.764 3.265 8.554 5.098 13.515 5.098h20.929c5.075 0 9.979 1.89 13.743 5.269l33.93 30.642c3.764 3.436 8.668 5.269 13.743 5.269h138.115v-36.656h57.311c4.277 0 8.44 1.318 11.918 3.838l21.214 15.235c3.478 2.52 7.641 3.837 11.918 3.837h44.023a81.622 81.622 0 0 1 4.163-9.106Z"/><path fill="#E6F5FF" d="M616.014 257.514H477.899c-5.246 0-10.208-1.947-14.085-5.441l-33.93-30.642a19.77 19.77 0 0 0-13.344-5.155h-20.929c-5.132 0-10.036-1.89-13.914-5.269l-24.863-21.879a19.954 19.954 0 0 0-13.173-4.983H138.883c-4.333 0-8.553-1.317-12.089-3.837l-14.256-10.023c-.228-.115-.285-.401-.228-.63.057-.229.285-.401.57-.401h251.082c3.821 0 7.585 1.031 10.835 3.035l35.926 21.65c3.079 1.89 6.672 2.864 10.265 2.864h40.545c2.68 0 5.36.516 7.812 1.489l15.454 6.186c2.338.974 4.847 1.432 7.413 1.432h200.159c4.22 0 8.326 1.26 11.804 3.665l30.053 20.447a19.944 19.944 0 0 0 11.177 3.437h21.099c.228 0 .399.114.513.286a.523.523 0 0 1 0 .573 82.213 82.213 0 0 0-4.106 9.107c-.057.229-.285.343-.513.343h-44.023a21.005 21.005 0 0 1-12.261-3.952l-21.213-15.235c-3.422-2.463-7.413-3.723-11.576-3.723h-56.74v36.084c0 .343-.229.572-.571.572Zm-501.309-87.057 12.773 8.992a19.88 19.88 0 0 0 11.462 3.608h204.778c5.133 0 10.037 1.89 13.915 5.269l24.863 21.879a19.948 19.948 0 0 0 13.172 4.983h20.929c5.246 0 10.207 1.948 14.085 5.441l33.93 30.642a19.77 19.77 0 0 0 13.344 5.155h137.488v-36.083c0-.344.228-.573.57-.573h57.311c4.448 0 8.668 1.375 12.26 3.952l21.214 15.235c3.421 2.463 7.413 3.723 11.576 3.723h43.624a67.358 67.358 0 0 1 3.593-8.018h-20.13c-4.22 0-8.326-1.26-11.804-3.666l-30.053-20.447a19.943 19.943 0 0 0-11.177-3.436H492.269c-2.68 0-5.36-.516-7.812-1.49l-15.454-6.185c-2.338-.974-4.847-1.432-7.413-1.432h-40.602c-3.821 0-7.585-1.031-10.835-3.036l-35.926-21.65c-3.079-1.89-6.672-2.863-10.265-2.863H114.705ZM670.757 99.435h-4.562c-.342 0-.57-.23-.57-.573 0-.344.228-.573.57-.573h4.562c.342 0 .571.23.571.573 0 .344-.229.573-.571.573ZM661.578 99.435h-18.191c-.342 0-.571-.23-.571-.573 0-.344.229-.573.571-.573h18.191c.342 0 .57.23.57.573a.573.573 0 0 1-.57.573ZM642.759 94.683c-.228 0-.456-.172-.57-.401-.057-.287.114-.63.399-.688l14.313-3.837c.285-.057.627.115.684.401.058.286-.114.63-.399.687l-14.313 3.838h-.114ZM657.072 108.026h-.171l-14.313-3.837c-.285-.058-.456-.401-.399-.688.057-.286.399-.515.684-.401l14.313 3.838c.285.057.457.401.399.687a.548.548 0 0 1-.513.401ZM570.964 99.435h-4.562c-.342 0-.57-.23-.57-.573 0-.344.228-.573.57-.573h4.562c.342 0 .571.23.571.573a.573.573 0 0 1-.571.573ZM593.773 99.435h-18.191c-.342 0-.57-.23-.57-.573 0-.344.228-.573.57-.573h18.191c.342 0 .57.23.57.573 0 .344-.228.573-.57.573ZM594.402 94.682h-.171l-14.313-3.837c-.285-.057-.456-.401-.399-.687.057-.287.399-.516.684-.401l14.313 3.837c.286.057.457.401.4.687a.55.55 0 0 1-.514.401ZM580.089 108.026c-.228 0-.456-.171-.57-.4-.057-.287.114-.63.399-.688l14.313-3.837c.285-.057.628.114.685.401.057.286-.114.63-.4.687l-14.313 3.837h-.114Z"/><path fill="#5EA4E3" d="M483.715 243.769h-4.562c-.228 0-.456-.115-.513-.344-.057-.229-.057-.458.114-.63l4.562-4.582c.171-.172.399-.229.627-.114.228.114.342.286.342.515v4.582c0 .344-.228.573-.57.573Zm-3.193-1.146h2.623v-2.634l-2.623 2.634ZM1439.46 271.258H757.435c-.342 0-.57-.229-.57-.573 0-43.242 35.071-78.466 78.125-78.466h604.47c.34 0 .57.229.57.572 0 .344-.23.573-.57.573H834.99c-42.256 0-76.699 34.365-76.984 76.748h681.454c.34 0 .57.229.57.573s-.23.573-.57.573Z"/><path fill="#fff" d="M786.236 249.205c-3.878-3.895-9.067-6.014-14.542-6.014h-53.319c-4.276 0-8.439-1.317-11.918-3.837l-21.213-15.235c-3.479-2.52-7.642-3.838-11.919-3.838h-25.376v50.402H807.62l-21.384-21.478Z"/><path fill="#5EA4E3" d="M807.62 271.258H647.949c-.342 0-.57-.229-.57-.573v-50.401c0-.344.228-.573.57-.573h25.376c4.391 0 8.668 1.375 12.261 3.952l21.213 15.235c3.422 2.463 7.414 3.723 11.576 3.723h53.319c5.589 0 10.892 2.176 14.827 6.128l.057.057 21.384 21.479c.171.171.228.4.114.63 0 .171-.228.343-.456.343Zm-159.101-1.145h157.732l-20.301-20.39-.057-.057c-3.763-3.781-8.781-5.842-14.142-5.842h-53.319c-4.448 0-8.667-1.375-12.26-3.952l-21.213-15.235c-3.422-2.463-7.414-3.723-11.577-3.723h-24.863v49.199Z"/><path fill="#E6F5FF" d="M622.857 98.861c0 6.358-3.421 11.455-3.421 11.455v-22.91s3.421 5.098 3.421 11.455Z"/><path fill="#5EA4E3" d="M619.435 110.889h-.171c-.228-.058-.399-.287-.399-.573v-22.91c0-.23.171-.458.399-.573.228-.057.514 0 .628.23.171.228 3.535 5.326 3.535 11.798s-3.364 11.569-3.535 11.798c-.114.115-.285.23-.457.23Zm.571-21.25v18.5c.969-2.004 2.281-5.441 2.281-9.22 0-3.781-1.312-7.275-2.281-9.28Z"/><path fill="#E6F5FF" d="M609.17 98.861c0 6.358 3.421 11.455 3.421 11.455v-22.91s-3.421 5.098-3.421 11.455Z"/><path fill="#5EA4E3" d="M612.591 110.889c-.171 0-.342-.115-.456-.23-.171-.229-3.535-5.326-3.535-11.798s3.364-11.57 3.535-11.799c.114-.229.399-.286.627-.229.229.057.4.287.4.573v22.91c0 .229-.171.458-.4.573h-.171Zm-.57-21.25c-.969 2.005-2.281 5.442-2.281 9.222 0 3.78 1.312 7.216 2.281 9.221V89.64Z"/><path fill="#E6F5FF" d="m333.167 211.121-6.843 59.566h-6.844l13.687-59.566Z"/><path fill="#E6F5FF" d="M326.324 271.259h-6.843a.517.517 0 0 1-.456-.229.447.447 0 0 1-.114-.458l13.686-59.566c.057-.286.342-.515.627-.458.286.057.514.344.457.63l-6.843 59.566a.513.513 0 0 1-.514.515Zm-6.101-1.145h5.645l5.646-48.913-11.291 48.913ZM522.492 183.629c0-2.119 1.426-3.952 3.421-4.41a3.646 3.646 0 0 0-1.14-.172c-2.509 0-4.562 2.062-4.562 4.582s2.053 4.582 4.562 4.582c.399 0 .798-.057 1.14-.172-1.995-.458-3.421-2.291-3.421-4.41Z"/><path fill="#E6F5FF" d="M524.773 188.786a5.122 5.122 0 0 1-5.132-5.155 5.122 5.122 0 0 1 6.443-4.983c.229.058.4.287.4.573 0 .287-.171.516-.457.573-1.767.458-2.965 2.062-2.965 3.895 0 1.832 1.255 3.436 2.965 3.894.229.058.457.287.457.573a.558.558 0 0 1-.457.573c-.399 0-.855.057-1.254.057Zm-1.141-8.992c-1.653.515-2.851 2.004-2.851 3.837 0 1.833 1.198 3.38 2.851 3.838a5.133 5.133 0 0 1-1.71-3.838c0-1.489.627-2.863 1.71-3.837ZM543.021 181.334c0-3.379 2.452-6.243 5.703-6.759-.399-.057-.742-.114-1.141-.114-3.763 0-6.843 3.093-6.843 6.873 0 3.78 3.08 6.873 6.843 6.873.399 0 .742-.057 1.141-.115-3.251-.515-5.703-3.379-5.703-6.758Z"/><path fill="#E6F5FF" d="M547.583 188.782c-4.106 0-7.413-3.322-7.413-7.446 0-4.123 3.307-7.445 7.413-7.445.399 0 .799.057 1.255.114.285.057.456.287.456.573s-.228.515-.456.573c-3.023.515-5.247 3.093-5.247 6.185 0 3.093 2.224 5.671 5.247 6.186.285.057.456.286.456.573 0 .286-.228.515-.456.572-.456.058-.856.115-1.255.115Zm-2.281-13.288c-2.338.917-3.992 3.208-3.992 5.842 0 2.635 1.654 4.926 3.992 5.842a7.362 7.362 0 0 1-2.851-5.842 7.365 7.365 0 0 1 2.851-5.842ZM292.109 142.394h18.248l27.373-45.82-45.621 45.82Z"/><path fill="#5EA4E3" d="M310.358 142.965H292.11c-.228 0-.456-.114-.513-.343-.057-.229-.057-.458.114-.63l45.62-45.82a.535.535 0 0 1 .741-.057.545.545 0 0 1 .114.744l-27.372 45.82c-.057.172-.228.286-.456.286Zm-16.88-1.145h16.538l24.806-41.524-41.344 41.524Z"/><path fill="#fff" d="m337.73 96.574-27.373 45.82h72.993l-45.62-45.82Z"/><path fill="#5EA4E3" d="M383.349 142.965h-72.992a.598.598 0 0 1-.514-.286.523.523 0 0 1 0-.573l27.373-45.82c.114-.171.228-.229.399-.286.171 0 .342.057.456.172l45.62 45.82c.171.171.228.401.114.63-.114.229-.228.343-.456.343Zm-71.966-1.145h70.597l-44.137-44.33-26.46 44.33Z"/><path fill="#E6F5FF" d="M392.475 133.23h13.686l18.248-32.074-31.934 32.074Z"/><path fill="#5EA4E3" d="M406.161 133.801h-13.686c-.228 0-.456-.114-.513-.343-.114-.229-.057-.458.114-.63l31.934-32.074a.535.535 0 0 1 .741-.057.626.626 0 0 1 .171.744l-18.248 32.074a.597.597 0 0 1-.513.286Zm-12.317-1.145h11.975l15.967-28.065-27.942 28.065Z"/><path fill="#fff" d="m264.738 96.574-45.621 45.82h91.241l-45.62-45.82Z"/><path fill="#5EA4E3" d="M310.358 142.965h-91.24c-.228 0-.457-.114-.514-.343-.057-.229-.057-.459.114-.63l45.621-45.82a.55.55 0 0 1 .798 0l45.62 45.82c.171.171.228.401.114.63-.114.229-.285.343-.513.343Zm-89.872-1.145h88.504l-44.252-44.445-44.252 44.445ZM584.079 193.368h-85.538c-3.821 0-7.585-1.031-10.835-3.036l-13.116-7.846c-3.079-1.89-6.672-2.864-10.265-2.864h-48.186c-3.65 0-7.299-.974-10.493-2.807l-22.468-12.886a20.084 20.084 0 0 0-9.922-2.635H100.504c-.342 0-.57-.229-.57-.573 0-.343.228-.573.57-.573h272.809c3.65 0 7.299.974 10.493 2.807l22.468 12.887a20.093 20.093 0 0 0 9.922 2.634h48.129c3.821 0 7.585 1.031 10.835 3.036l13.116 7.847c3.079 1.89 6.672 2.863 10.265 2.863h85.538c.342 0 .57.229.57.573s-.228.573-.57.573Z"/><path fill="#E6F5FF" d="m583.852 238.613.228 9.164h-40.83c-5.018 0-9.124 4.124-9.124 9.164v13.746h-4.79v-31.959l54.516-.115Z"/><path fill="#E6F5FF" d="M534.126 271.258h-4.79c-.342 0-.57-.229-.57-.572v-31.96c0-.343.228-.572.57-.572l54.516-.115c.285 0 .57.229.57.573l.228 9.164a.522.522 0 0 1-.171.401.518.518 0 0 1-.399.172h-40.83c-4.733 0-8.554 3.837-8.554 8.591v13.746a.572.572 0 0 1-.57.572Zm-4.22-1.145h3.65V256.94c0-5.384 4.334-9.737 9.694-9.737h40.26l-.171-8.018-53.433.114v30.814Z"/><path fill="#fff" d="m483.715 238.613 22.81-22.91 22.867 22.91v32.074h-45.677v-32.074Z"/><path fill="#5EA4E3" d="M529.392 271.262h-45.677c-.342 0-.57-.229-.57-.573v-32.074a.52.52 0 0 1 .171-.4l22.81-22.91a.55.55 0 0 1 .798 0l22.867 22.91a.52.52 0 0 1 .171.4v32.074a.573.573 0 0 1-.57.573Zm-45.107-1.145h44.537v-31.272l-22.297-22.338-22.24 22.338v31.272Z"/><path fill="#fff" d="M584.023 215.703h-77.498l27.373 27.492h77.554l-27.429-27.492Z"/><path fill="#5EA4E3" d="M611.452 243.77h-77.554a.515.515 0 0 1-.399-.172l-27.372-27.492c-.172-.171-.229-.4-.115-.63.115-.229.286-.343.514-.343h77.497c.171 0 .285.057.399.172l27.372 27.491c.171.172.229.401.115.631a.5.5 0 0 1-.457.343Zm-77.326-1.145h75.901l-26.232-26.347h-75.901l26.232 26.347Z"/><path fill="#5EA4E3" d="M538.458 243.77a.515.515 0 0 1-.399-.172l-27.429-27.492a.555.555 0 0 1 0-.801.55.55 0 0 1 .798 0l27.43 27.492a.555.555 0 0 1 0 .801.517.517 0 0 1-.4.172ZM543.021 243.77a.515.515 0 0 1-.399-.172l-27.429-27.492a.553.553 0 0 1 0-.801.55.55 0 0 1 .798 0l27.429 27.492a.555.555 0 0 1 0 .801.515.515 0 0 1-.399.172ZM547.64 243.77a.515.515 0 0 1-.399-.172l-27.429-27.492a.555.555 0 0 1 0-.801.55.55 0 0 1 .798 0l27.429 27.492a.555.555 0 0 1 0 .801.612.612 0 0 1-.399.172ZM552.203 243.77a.516.516 0 0 1-.4-.172l-27.429-27.492a.555.555 0 0 1 0-.801.55.55 0 0 1 .799 0l27.429 27.492a.555.555 0 0 1 0 .801.515.515 0 0 1-.399.172ZM556.822 243.77a.515.515 0 0 1-.399-.172l-27.43-27.492a.555.555 0 0 1 0-.801.55.55 0 0 1 .799 0l27.429 27.492a.555.555 0 0 1 0 .801.612.612 0 0 1-.399.172ZM561.382 243.77a.515.515 0 0 1-.399-.172l-27.429-27.492a.555.555 0 0 1 0-.801.55.55 0 0 1 .798 0l27.429 27.492a.553.553 0 0 1 0 .801c-.057.115-.228.172-.399.172ZM566.003 243.77a.515.515 0 0 1-.399-.172l-27.429-27.492a.555.555 0 0 1 0-.801.55.55 0 0 1 .798 0l27.43 27.492a.555.555 0 0 1 0 .801.519.519 0 0 1-.4.172ZM570.623 243.77a.516.516 0 0 1-.4-.172l-27.429-27.492a.555.555 0 0 1 0-.801.55.55 0 0 1 .798 0l27.43 27.492a.555.555 0 0 1 0 .801.612.612 0 0 1-.399.172ZM575.183 243.77a.515.515 0 0 1-.399-.172l-27.429-27.492a.555.555 0 0 1 0-.801.55.55 0 0 1 .798 0l27.429 27.492a.555.555 0 0 1 0 .801c-.057.115-.228.172-.399.172ZM579.804 243.77a.515.515 0 0 1-.399-.172l-27.429-27.492a.555.555 0 0 1 0-.801.55.55 0 0 1 .798 0l27.429 27.492a.555.555 0 0 1 0 .801.515.515 0 0 1-.399.172ZM584.421 243.77a.515.515 0 0 1-.399-.172l-27.429-27.492a.555.555 0 0 1 0-.801.55.55 0 0 1 .798 0l27.43 27.492a.555.555 0 0 1 0 .801.617.617 0 0 1-.4.172ZM588.984 243.77a.515.515 0 0 1-.399-.172l-27.43-27.492a.555.555 0 0 1 0-.801.55.55 0 0 1 .799 0l27.429 27.492a.555.555 0 0 1 0 .801.515.515 0 0 1-.399.172ZM593.601 243.77a.515.515 0 0 1-.399-.172l-27.429-27.492a.555.555 0 0 1 0-.801.55.55 0 0 1 .798 0L594 242.797a.555.555 0 0 1 0 .801.612.612 0 0 1-.399.172ZM598.222 243.77a.515.515 0 0 1-.399-.172l-27.429-27.492a.555.555 0 0 1 0-.801.55.55 0 0 1 .798 0l27.429 27.492a.555.555 0 0 1 0 .801.612.612 0 0 1-.399.172ZM602.785 243.77a.517.517 0 0 1-.4-.172l-27.429-27.492a.555.555 0 0 1 0-.801.55.55 0 0 1 .799 0l27.429 27.492a.555.555 0 0 1 0 .801.515.515 0 0 1-.399.172ZM607.402 243.77a.515.515 0 0 1-.399-.172l-27.43-27.492a.555.555 0 0 1 0-.801.55.55 0 0 1 .799 0l27.429 27.492a.555.555 0 0 1 0 .801.612.612 0 0 1-.399.172ZM479.152 243.77a.515.515 0 0 1-.399-.172.555.555 0 0 1 0-.801l27.372-27.492a.55.55 0 0 1 .799 0l27.372 27.492a.555.555 0 0 1 0 .801.55.55 0 0 1-.799 0l-26.973-27.091-26.973 27.091a.515.515 0 0 1-.399.172ZM483.715 257.514h-5.817c-5.246 0-10.207-1.947-14.085-5.441l-33.93-30.642a19.77 19.77 0 0 0-13.344-5.155h-20.928c-5.133 0-10.037-1.89-13.915-5.269l-24.863-21.879a19.953 19.953 0 0 0-13.172-4.983H138.94c-4.334 0-8.554-1.317-12.09-3.837L91.837 155.68a19.871 19.871 0 0 0-11.462-3.609H-2.141c-.342 0-.57-.229-.57-.572 0-.344.228-.573.57-.573h82.516c4.334 0 8.553 1.317 12.09 3.837l35.013 24.628A19.87 19.87 0 0 0 138.94 183h204.778c5.132 0 10.036 1.89 13.914 5.269l24.863 21.879a19.956 19.956 0 0 0 13.173 4.983h20.928c5.246 0 10.208 1.947 14.085 5.441l33.93 30.642a19.77 19.77 0 0 0 13.344 5.155h5.76c.342 0 .57.229.57.572 0 .344-.228.573-.57.573Z"/><path fill="#fff" d="M483.715 258.655c.969 0 1.71-.744 1.71-1.718s-.741-1.718-1.71-1.718c-.97 0-1.711.744-1.711 1.718s.741 1.718 1.711 1.718Z"/><path fill="#5EA4E3" d="M483.715 259.23a2.292 2.292 0 0 1-2.281-2.291 2.292 2.292 0 0 1 2.281-2.291 2.293 2.293 0 0 1 2.281 2.291 2.293 2.293 0 0 1-2.281 2.291Zm0-3.436a1.146 1.146 0 0 0 0 2.291 1.147 1.147 0 0 0 0-2.291ZM346.853 271.258h-27.372a.517.517 0 0 1-.456-.229c-.114-.115-.171-.286-.114-.458l13.686-59.566a.556.556 0 0 1 .57-.458c.286 0 .514.172.571.458l13.686 59.566a.447.447 0 0 1-.114.458.518.518 0 0 1-.457.229Zm-26.63-1.145h25.946l-13.002-56.473-12.944 56.473Z"/><path fill="#5EA4E3" d="M333.168 271.258c-.342 0-.57-.229-.57-.572V234.03c0-.344.228-.573.57-.573.343 0 .571.229.571.573v36.656c0 .343-.228.572-.571.572Z"/><path fill="#5EA4E3" d="M333.168 266.677a.518.518 0 0 1-.399-.172.556.556 0 0 1 0-.802l4.562-4.582a.55.55 0 0 1 .798 0 .556.556 0 0 1 0 .802l-4.562 4.582a.518.518 0 0 1-.399.172ZM333.167 262.095a.518.518 0 0 1-.399-.172l-4.562-4.582a.556.556 0 0 1 0-.802.55.55 0 0 1 .799 0l4.562 4.582a.556.556 0 0 1 0 .802.519.519 0 0 1-.4.172ZM333.168 257.513a.518.518 0 0 1-.399-.172.556.556 0 0 1 0-.802l4.562-4.582a.55.55 0 0 1 .798 0 .556.556 0 0 1 0 .802l-4.562 4.582a.518.518 0 0 1-.399.172ZM333.167 252.931a.518.518 0 0 1-.399-.172l-4.562-4.582a.556.556 0 0 1 0-.802.55.55 0 0 1 .799 0l4.562 4.582a.556.556 0 0 1 0 .802.519.519 0 0 1-.4.172ZM333.168 243.769a.522.522 0 0 1-.4-.172l-2.281-2.291a.556.556 0 0 1 0-.802.55.55 0 0 1 .799 0l2.281 2.291a.556.556 0 0 1 0 .802.518.518 0 0 1-.399.172Z"/><path fill="#E6F5FF" d="M387.913 245.482c0-7.675 5.361-14.089 12.546-15.693a16.518 16.518 0 0 0-3.422-.344c-8.839 0-15.967 7.16-15.967 16.037 0 8.878 7.128 16.037 15.967 16.037 1.198 0 2.338-.114 3.422-.343-7.185-1.604-12.546-8.019-12.546-15.694Z"/><path fill="#E6F5FF" d="M397.037 262.094c-9.124 0-16.537-7.445-16.537-16.609 0-9.164 7.413-16.61 16.537-16.61 1.198 0 2.395.115 3.536.401.285.057.456.286.456.573 0 .286-.171.515-.456.572-7.014 1.547-12.089 7.904-12.089 15.121 0 7.217 5.075 13.574 12.089 15.12a.558.558 0 0 1 .456.573c0 .287-.171.516-.456.573a23.862 23.862 0 0 1-3.536.286Zm0-32.074c-8.496 0-15.396 6.931-15.396 15.465 0 8.534 6.9 15.464 15.396 15.464h.742c-6.216-2.463-10.436-8.591-10.436-15.464 0-6.873 4.277-12.944 10.436-15.465h-.742Z"/><path fill="#5EA4E3" d="M397.037 262.094c-9.124 0-16.537-7.445-16.537-16.609 0-9.164 7.413-16.61 16.537-16.61 9.124 0 16.538 7.446 16.538 16.61s-7.414 16.609-16.538 16.609Zm0-32.074c-8.496 0-15.396 6.931-15.396 15.465 0 8.534 6.9 15.464 15.396 15.464 8.497 0 15.397-6.93 15.397-15.464s-6.9-15.465-15.397-15.465Z"/><path fill="#5EA4E3" d="M397.037 271.258c-.342 0-.57-.229-.57-.572v-32.074c0-.344.228-.573.57-.573.343 0 .571.229.571.573v32.074c0 .343-.228.572-.571.572Z"/><path fill="#5EA4E3" d="M397.037 252.931a.518.518 0 0 1-.399-.172.556.556 0 0 1 0-.802l9.124-9.164a.55.55 0 0 1 .798 0 .556.556 0 0 1 0 .802l-9.124 9.164a.518.518 0 0 1-.399.172Z"/><path fill="#E6F5FF" d="M125.595 245.482c0-7.675 5.36-14.089 12.546-15.693a16.518 16.518 0 0 0-3.422-.344c-8.839 0-15.967 7.16-15.967 16.037 0 8.878 7.128 16.037 15.967 16.037 1.198 0 2.338-.114 3.422-.343-7.186-1.604-12.546-8.019-12.546-15.694Z"/><path fill="#E6F5FF" d="M134.719 262.094c-9.124 0-16.537-7.445-16.537-16.609 0-9.164 7.413-16.61 16.537-16.61 1.198 0 2.395.115 3.536.401.285.057.456.286.456.573 0 .286-.171.515-.456.572-7.015 1.547-12.09 7.904-12.09 15.121 0 7.217 5.075 13.574 12.09 15.12a.558.558 0 0 1 .456.573c0 .287-.171.516-.456.573a23.862 23.862 0 0 1-3.536.286Zm0-32.074c-8.497 0-15.397 6.931-15.397 15.465 0 8.534 6.9 15.464 15.397 15.464h.741c-6.215-2.463-10.435-8.591-10.435-15.464 0-6.873 4.277-12.944 10.435-15.465h-.741Z"/><path fill="#5EA4E3" d="M134.719 262.094c-9.124 0-16.537-7.445-16.537-16.609 0-9.164 7.413-16.61 16.537-16.61 9.124 0 16.537 7.446 16.537 16.61s-7.413 16.609-16.537 16.609Zm0-32.074c-8.497 0-15.397 6.931-15.397 15.465 0 8.534 6.9 15.464 15.397 15.464s15.397-6.93 15.397-15.464-6.9-15.465-15.397-15.465Z"/><path fill="#5EA4E3" d="M134.721 271.258c-.342 0-.571-.229-.571-.572v-32.074c0-.344.229-.573.571-.573.342 0 .571.229.571.573v32.074c0 .343-.229.572-.571.572Z"/><path fill="#5EA4E3" d="M134.721 252.931a.522.522 0 0 1-.4-.172.556.556 0 0 1 0-.802l9.125-9.164a.55.55 0 0 1 .798 0 .556.556 0 0 1 0 .802l-9.124 9.164a.518.518 0 0 1-.399.172Z"/><path fill="#fff" d="m424.41 101.156-18.248 32.074-22.81-22.91-18.248 32.074h100.364l-41.058-41.238Z"/><path fill="#5EA4E3" d="M465.467 142.965H365.103a.599.599 0 0 1-.514-.286.523.523 0 0 1 0-.573l18.249-32.074c.114-.171.228-.286.399-.286s.342.057.456.172l22.297 22.394 17.906-31.444c.114-.171.228-.286.399-.286s.342.057.456.172l41.058 41.238c.171.171.228.401.114.63-.114.229-.228.343-.456.343Zm-99.395-1.145h98.027l-39.576-39.749-17.906 31.444c-.114.172-.228.286-.399.286a.647.647 0 0 1-.456-.171l-22.297-22.395-17.393 30.585Z"/><path fill="#E6F5FF" d="M351.418 142.394h13.686l18.248-32.074-31.934 32.074Z"/><path fill="#5EA4E3" d="M365.102 142.966h-13.686c-.228 0-.456-.115-.513-.344-.057-.229-.057-.458.114-.63l31.934-32.074a.536.536 0 0 1 .742-.057.626.626 0 0 1 .171.744l-18.248 32.074a.599.599 0 0 1-.514.287Zm-12.317-1.146h11.975l15.967-28.065-27.942 28.065Z"/><path fill="#E6F5FF" d="M205.432 142.394h13.686l45.62-45.82-59.306 45.82Z"/><path fill="#5EA4E3" d="M219.117 142.965h-13.686a.547.547 0 0 1-.513-.401c-.057-.229 0-.515.171-.63l59.306-45.82a.61.61 0 0 1 .799.058.69.69 0 0 1 0 .802l-45.621 45.82c-.171.114-.285.171-.456.171Zm-12.032-1.145h11.747l39.233-39.405-50.98 39.405Z"/><path fill="#E6F5FF" d="M82.256 110.32h13.686l13.686-27.492-27.372 27.492Z"/><path fill="#5EA4E3" d="M95.942 110.892H82.256c-.228 0-.456-.114-.513-.343-.114-.23-.057-.459.114-.63l27.372-27.492c.171-.172.513-.23.741-.058.229.172.286.459.172.745l-13.686 27.492a.598.598 0 0 1-.514.286Zm-12.317-1.145H95.6l11.975-23.998-23.95 23.998Z"/><path fill="#5EA4E3" d="M137.001 110.891H95.942a.682.682 0 0 1-.513-.286.522.522 0 0 1 0-.573l13.686-27.492a.43.43 0 0 1 .4-.287c.171-.057.342.058.513.172l27.372 27.492c.171.172.228.401.114.63-.057.229-.285.344-.513.344Zm-40.146-1.146h38.777L109.8 83.8l-12.945 25.945Z"/><path fill="#fff" d="M45.761 64.5.141 110.32h91.24L45.761 64.5Z"/><path fill="#5EA4E3" d="M91.381 110.891H.141c-.228 0-.456-.114-.513-.344-.114-.229-.057-.458.114-.63l45.62-45.82a.55.55 0 0 1 .798 0l45.62 45.82c.172.172.229.401.115.63-.057.23-.285.344-.514.344ZM1.51 109.746h88.503L45.76 65.3 1.51 109.746Z"/><path fill="#fff" d="M342.291 140.101h-4.562l2.281-9.163 2.281 9.163Z"/><path fill="#5EA4E3" d="M342.291 140.671h-4.562a.517.517 0 0 1-.456-.229c-.114-.114-.171-.343-.114-.515l2.281-9.164c.057-.229.285-.458.57-.458s.514.172.571.458l2.281 9.164c.057.172 0 .343-.114.515a.519.519 0 0 1-.457.229Zm-3.82-1.145h3.079l-1.54-6.243-1.539 6.243Z"/><path fill="#5EA4E3" d="M340.012 142.964c-.342 0-.571-.229-.571-.573V140.1c0-.344.229-.573.571-.573.342 0 .571.229.571.573v2.291c0 .344-.229.573-.571.573Z"/><path fill="#fff" d="M383.349 140.101h-4.562l2.281-9.163 2.281 9.163Z"/><path fill="#5EA4E3" d="M383.35 140.671h-4.562a.517.517 0 0 1-.456-.229.55.55 0 0 1-.114-.515l2.281-9.164c.057-.229.285-.458.57-.458s.513.172.57.458l2.281 9.164c.057.172 0 .343-.114.515a.517.517 0 0 1-.456.229Zm-3.821-1.145h3.08l-1.54-6.243-1.54 6.243Z"/><path fill="#5EA4E3" d="M381.071 142.964c-.343 0-.571-.229-.571-.573V140.1c0-.344.228-.573.571-.573.342 0 .57.229.57.573v2.291c0 .344-.228.573-.57.573Z"/><path fill="#fff" d="M433.533 140.101h-4.562l2.281-9.163 2.281 9.163Z"/><path fill="#5EA4E3" d="M433.534 140.671h-4.562a.518.518 0 0 1-.457-.229.55.55 0 0 1-.114-.515l2.281-9.164c.057-.229.285-.458.571-.458.285 0 .513.172.57.458l2.281 9.164c.057.172 0 .343-.114.515a.517.517 0 0 1-.456.229Zm-3.821-1.145h3.079l-1.539-6.243-1.54 6.243Z"/><path fill="#5EA4E3" d="M431.252 142.964c-.342 0-.57-.229-.57-.573V140.1c0-.344.228-.573.57-.573.343 0 .571.229.571.573v2.291c0 .344-.228.573-.571.573Z"/><path fill="#E6F5FF" d="M417.566 174.469h-2.281l4.562-18.328-2.281 18.328Z"/><path fill="#E6F5FF" d="M417.565 175.039h-2.281a.517.517 0 0 1-.456-.229.551.551 0 0 1-.114-.515l4.562-18.328c.057-.287.342-.459.684-.401.285.057.513.343.456.63l-2.281 18.328c-.057.286-.285.515-.57.515Zm-1.54-1.145h1.027l1.026-8.42-2.053 8.42Z"/><path fill="#5EA4E3" d="M424.408 175.038h-9.124a.517.517 0 0 1-.456-.229c-.114-.114-.171-.343-.114-.515l4.562-18.328c.057-.229.285-.458.57-.458s.513.172.57.458l4.562 18.328c.057.172 0 .344-.114.515a.517.517 0 0 1-.456.229Zm-8.383-1.145h7.642l-3.821-15.407-3.821 15.407Z"/><path fill="#5EA4E3" d="M419.848 179.622c-.342 0-.571-.229-.571-.573v-9.164c0-.343.229-.573.571-.573.342 0 .571.23.571.573v9.164c0 .344-.229.573-.571.573Z"/><path fill="#E6F5FF" d="M298.953 179.051h-2.281l4.562-13.746-2.281 13.746Z"/><path fill="#E6F5FF" d="M298.953 179.621h-2.281c-.171 0-.342-.114-.456-.229-.114-.114-.114-.344-.057-.515l4.562-13.746c.114-.287.399-.459.684-.401a.527.527 0 0 1 .399.63l-2.281 13.746c-.057.286-.285.515-.57.515Zm-1.483-1.145h1.027l1.026-6.071-2.053 6.071Z"/><path fill="#5EA4E3" d="M305.796 179.618h-9.124c-.171 0-.342-.115-.456-.229-.114-.115-.114-.344-.057-.516l4.562-13.746a.547.547 0 0 1 .513-.4c.228 0 .456.171.513.4l4.562 13.746a.56.56 0 0 1-.057.516.517.517 0 0 1-.456.229Zm-8.326-1.146h7.527l-3.763-11.34-3.764 11.34Z"/><path fill="#5EA4E3" d="M301.235 184.2c-.343 0-.571-.229-.571-.573v-9.164c0-.343.228-.572.571-.572.342 0 .57.229.57.572v9.164c0 .344-.228.573-.57.573Z"/><path fill="#fff" d="M442.656 140.101h-4.562l2.281-9.163 2.281 9.163Z"/><path fill="#5EA4E3" d="M442.657 140.671h-4.562a.519.519 0 0 1-.457-.229.55.55 0 0 1-.114-.515l2.281-9.164c.057-.229.285-.458.571-.458.285 0 .513.172.57.458l2.281 9.164c.057.172 0 .343-.114.515a.517.517 0 0 1-.456.229Zm-3.821-1.145h3.079l-1.539-6.243-1.54 6.243Z"/><path fill="#5EA4E3" d="M440.375 142.964c-.342 0-.57-.229-.57-.573V140.1c0-.344.228-.573.57-.573.343 0 .571.229.571.573v2.291c0 .344-.228.573-.571.573Z"/><path fill="#fff" d="M269.298 140.101h-4.562l2.281-9.163 2.281 9.163Z"/><path fill="#5EA4E3" d="M269.299 140.671h-4.562a.517.517 0 0 1-.456-.229.55.55 0 0 1-.114-.515l2.281-9.164c.057-.229.285-.458.57-.458s.513.172.57.458l2.281 9.164c.057.172 0 .343-.114.515a.517.517 0 0 1-.456.229Zm-3.821-1.145h3.08l-1.54-6.243-1.54 6.243Z"/><path fill="#5EA4E3" d="M267.018 142.964c-.342 0-.571-.229-.571-.573V140.1c0-.344.229-.573.571-.573.342 0 .571.229.571.573v2.291c0 .344-.229.573-.571.573Z"/><path fill="#fff" d="M278.425 140.101h-4.562l2.281-9.163 2.281 9.163Z"/><path fill="#5EA4E3" d="M278.424 140.671h-4.562a.517.517 0 0 1-.456-.229.55.55 0 0 1-.114-.515l2.281-9.164c.057-.229.285-.458.57-.458s.513.172.57.458l2.281 9.164c.057.172 0 .343-.114.515a.517.517 0 0 1-.456.229Zm-3.821-1.145h3.08l-1.54-6.243-1.54 6.243Z"/><path fill="#5EA4E3" d="M276.143 142.964c-.343 0-.571-.229-.571-.573V140.1c0-.344.228-.573.571-.573.342 0 .571.229.571.573v2.291c0 .344-.229.573-.571.573Z"/><path fill="#fff" d="M118.751 108.031h-4.562l2.281-9.164 2.281 9.164Z"/><path fill="#5EA4E3" d="M118.752 108.601h-4.562a.517.517 0 0 1-.456-.229c-.114-.172-.171-.344-.114-.515l2.281-9.164c.057-.23.285-.459.57-.459s.514.172.571.459l2.281 9.164c.057.171 0 .343-.114.515a.52.52 0 0 1-.457.229Zm-3.82-1.145h3.079l-1.54-6.243-1.539 6.243Z"/><path fill="#5EA4E3" d="M116.473 110.89c-.342 0-.571-.229-.571-.573v-2.291c0-.344.229-.573.571-.573.342 0 .571.229.571.573v2.291c0 .344-.229.573-.571.573Z"/><path fill="#fff" d="M451.781 140.101h-4.562l2.281-9.163 2.281 9.163Z"/><path fill="#5EA4E3" d="M451.782 140.671h-4.562a.519.519 0 0 1-.457-.229.55.55 0 0 1-.114-.515l2.281-9.164c.057-.229.285-.458.571-.458.285 0 .513.172.57.458l2.281 9.164c.057.172 0 .343-.114.515a.517.517 0 0 1-.456.229Zm-3.821-1.145h3.079l-1.539-6.243-1.54 6.243Z"/><path fill="#5EA4E3" d="M449.5 142.964c-.342 0-.57-.229-.57-.573V140.1c0-.344.228-.573.57-.573.343 0 .571.229.571.573v2.291c0 .344-.228.573-.571.573ZM481.434 142.964c-.342 0-.571-.229-.571-.573V140.1c0-.344.229-.573.571-.573.342 0 .571.229.571.573v2.291c0 .344-.229.573-.571.573Z"/><path fill="#fff" d="M481.433 140.103c1.882 0 3.422-1.546 3.422-3.436s-1.54-3.437-3.422-3.437c-1.881 0-3.421 1.547-3.421 3.437s1.54 3.436 3.421 3.436Z"/><path fill="#5EA4E3" d="M481.433 140.675a3.977 3.977 0 0 1-3.992-4.01 3.976 3.976 0 0 1 3.992-4.009 3.976 3.976 0 0 1 3.992 4.009 3.977 3.977 0 0 1-3.992 4.01Zm0-6.873c-1.597 0-2.851 1.26-2.851 2.863 0 1.604 1.254 2.864 2.851 2.864s2.851-1.26 2.851-2.864c0-1.603-1.254-2.863-2.851-2.863ZM231.664 161.292c-.342 0-.57-.229-.57-.573v-2.291c0-.343.228-.573.57-.573.343 0 .571.23.571.573v2.291c0 .344-.228.573-.571.573Z"/><path fill="#fff" d="M231.664 158.428c1.882 0 3.421-1.547 3.421-3.437s-1.539-3.436-3.421-3.436-3.422 1.546-3.422 3.436 1.54 3.437 3.422 3.437Z"/><path fill="#5EA4E3" d="M231.664 159.003a3.976 3.976 0 0 1-3.992-4.009 3.977 3.977 0 0 1 3.992-4.01c2.224 0 3.991 1.776 3.991 4.01 0 2.233-1.767 4.009-3.991 4.009Zm0-6.873c-1.597 0-2.852 1.26-2.852 2.864a2.83 2.83 0 0 0 2.852 2.863c1.596 0 2.851-1.26 2.851-2.863 0-1.604-1.255-2.864-2.851-2.864ZM158.672 161.292c-.342 0-.57-.229-.57-.573v-2.291c0-.343.228-.573.57-.573.343 0 .571.23.571.573v2.291c0 .344-.228.573-.571.573Z"/><path fill="#fff" d="M158.67 158.428c1.881 0 3.421-1.547 3.421-3.437s-1.54-3.436-3.421-3.436c-1.882 0-3.422 1.546-3.422 3.436s1.54 3.437 3.422 3.437Z"/><path fill="#5EA4E3" d="M158.67 159.003a3.976 3.976 0 0 1-3.992-4.009 3.977 3.977 0 0 1 3.992-4.01c2.223 0 3.991 1.776 3.991 4.01a3.976 3.976 0 0 1-3.991 4.009Zm0-6.873c-1.597 0-2.852 1.26-2.852 2.864a2.83 2.83 0 0 0 2.852 2.863c1.596 0 2.851-1.26 2.851-2.863 0-1.604-1.255-2.864-2.851-2.864ZM142.703 161.292c-.342 0-.57-.229-.57-.573v-2.291c0-.343.228-.573.57-.573.343 0 .571.23.571.573v2.291c0 .344-.228.573-.571.573Z"/><path fill="#fff" d="M142.703 158.428c1.882 0 3.421-1.547 3.421-3.437s-1.539-3.436-3.421-3.436-3.422 1.546-3.422 3.436 1.54 3.437 3.422 3.437Z"/><path fill="#5EA4E3" d="M142.703 159.003a3.976 3.976 0 0 1-3.992-4.009 3.977 3.977 0 0 1 3.992-4.01c2.224 0 3.991 1.776 3.991 4.01 0 2.233-1.767 4.009-3.991 4.009Zm0-6.873c-1.597 0-2.852 1.26-2.852 2.864a2.83 2.83 0 0 0 2.852 2.863c1.596 0 2.851-1.26 2.851-2.863 0-1.604-1.255-2.864-2.851-2.864ZM126.737 161.292c-.343 0-.571-.229-.571-.573v-2.291c0-.343.228-.573.571-.573.342 0 .57.23.57.573v2.291c0 .344-.228.573-.57.573Z"/><path fill="#fff" d="M126.736 158.428c1.882 0 3.421-1.547 3.421-3.437s-1.539-3.436-3.421-3.436-3.422 1.546-3.422 3.436 1.54 3.437 3.422 3.437Z"/><path fill="#5EA4E3" d="M126.736 159.003a3.976 3.976 0 0 1-3.992-4.009 3.977 3.977 0 0 1 3.992-4.01 3.977 3.977 0 0 1 3.992 4.01 3.976 3.976 0 0 1-3.992 4.009Zm0-6.873c-1.597 0-2.851 1.26-2.851 2.864 0 1.603 1.254 2.863 2.851 2.863s2.851-1.26 2.851-2.863c0-1.604-1.254-2.864-2.851-2.864ZM530.477 156.71c-.342 0-.571-.229-.571-.573v-2.291c0-.343.229-.573.571-.573.342 0 .571.23.571.573v2.291c0 .344-.229.573-.571.573Z"/><path fill="#fff" d="M530.476 153.842c1.882 0 3.422-1.547 3.422-3.437s-1.54-3.436-3.422-3.436c-1.882 0-3.421 1.546-3.421 3.436s1.539 3.437 3.421 3.437Z"/><path fill="#5EA4E3" d="M530.476 154.417a3.976 3.976 0 0 1-3.992-4.009 3.977 3.977 0 0 1 3.992-4.01 3.977 3.977 0 0 1 3.992 4.01 3.976 3.976 0 0 1-3.992 4.009Zm0-6.873c-1.597 0-2.851 1.26-2.851 2.864 0 1.603 1.254 2.863 2.851 2.863s2.851-1.26 2.851-2.863c0-1.604-1.254-2.864-2.851-2.864ZM557.848 156.71c-.342 0-.571-.229-.571-.573v-2.291c0-.343.229-.573.571-.573.342 0 .571.23.571.573v2.291c0 .344-.229.573-.571.573Z"/><path fill="#fff" d="M557.847 153.842c1.882 0 3.422-1.547 3.422-3.437s-1.54-3.436-3.422-3.436c-1.882 0-3.421 1.546-3.421 3.436s1.539 3.437 3.421 3.437Z"/><path fill="#5EA4E3" d="M557.847 154.417a3.976 3.976 0 0 1-3.992-4.009 3.977 3.977 0 0 1 3.992-4.01 3.977 3.977 0 0 1 3.992 4.01 3.976 3.976 0 0 1-3.992 4.009Zm0-6.873c-1.596 0-2.851 1.26-2.851 2.864 0 1.603 1.255 2.863 2.851 2.863a2.83 2.83 0 0 0 2.852-2.863c0-1.604-1.255-2.864-2.852-2.864ZM678.743 156.71c-.343 0-.571-.229-.571-.573v-2.291c0-.343.228-.573.571-.573.342 0 .57.23.57.573v2.291c0 .344-.228.573-.57.573Z"/><path fill="#fff" d="M678.742 153.842c1.882 0 3.421-1.547 3.421-3.437s-1.539-3.436-3.421-3.436-3.422 1.546-3.422 3.436 1.54 3.437 3.422 3.437Z"/><path fill="#5EA4E3" d="M678.742 154.417a3.976 3.976 0 0 1-3.992-4.009 3.977 3.977 0 0 1 3.992-4.01 3.977 3.977 0 0 1 3.992 4.01 3.976 3.976 0 0 1-3.992 4.009Zm0-6.873c-1.597 0-2.851 1.26-2.851 2.864 0 1.603 1.254 2.863 2.851 2.863 1.596 0 2.851-1.26 2.851-2.863 0-1.604-1.255-2.864-2.851-2.864ZM706.114 156.71c-.343 0-.571-.229-.571-.573v-2.291c0-.343.228-.573.571-.573.342 0 .57.23.57.573v2.291c0 .344-.228.573-.57.573Z"/><path fill="#fff" d="M706.113 153.842c1.882 0 3.421-1.547 3.421-3.437s-1.539-3.436-3.421-3.436-3.422 1.546-3.422 3.436 1.54 3.437 3.422 3.437Z"/><path fill="#5EA4E3" d="M706.113 154.417a3.976 3.976 0 0 1-3.992-4.009 3.977 3.977 0 0 1 3.992-4.01 3.977 3.977 0 0 1 3.992 4.01 3.976 3.976 0 0 1-3.992 4.009Zm0-6.873c-1.597 0-2.851 1.26-2.851 2.864 0 1.603 1.254 2.863 2.851 2.863s2.851-1.26 2.851-2.863c0-1.604-1.254-2.864-2.851-2.864ZM1194.54 165.874c-.35 0-.58-.229-.58-.573v-2.291c0-.343.23-.572.58-.572.34 0 .57.229.57.572v2.291c0 .344-.23.573-.57.573Z"/><path fill="#fff" d="M1194.53 163.006c1.89 0 3.43-1.547 3.43-3.437a3.44 3.44 0 0 0-3.43-3.436c-1.88 0-3.42 1.546-3.42 3.436s1.54 3.437 3.42 3.437Z"/><path fill="#5EA4E3" d="M1194.53 163.581a3.977 3.977 0 0 1-3.99-4.009c0-2.234 1.77-4.01 3.99-4.01 2.23 0 4 1.776 4 4.01a3.98 3.98 0 0 1-4 4.009Zm0-6.873c-1.59 0-2.85 1.26-2.85 2.864a2.833 2.833 0 0 0 2.85 2.863c1.6 0 2.86-1.26 2.86-2.863a2.835 2.835 0 0 0-2.86-2.864ZM1221.91 165.874c-.34 0-.57-.229-.57-.573v-2.291c0-.343.23-.572.57-.572.34 0 .57.229.57.572v2.291c0 .344-.23.573-.57.573Z"/><path fill="#fff" d="M1221.91 163.006c1.88 0 3.42-1.547 3.42-3.437s-1.54-3.436-3.42-3.436-3.42 1.546-3.42 3.436 1.54 3.437 3.42 3.437Z"/><path fill="#5EA4E3" d="M1221.91 163.581c-2.23 0-3.99-1.776-3.99-4.009 0-2.234 1.76-4.01 3.99-4.01 2.22 0 3.99 1.776 3.99 4.01a3.977 3.977 0 0 1-3.99 4.009Zm0-6.873c-1.6 0-2.85 1.26-2.85 2.864 0 1.603 1.25 2.863 2.85 2.863 1.59 0 2.85-1.26 2.85-2.863a2.833 2.833 0 0 0-2.85-2.864ZM547.583 188.782c-4.106 0-7.413-3.322-7.413-7.446 0-4.123 3.307-7.445 7.413-7.445s7.414 3.322 7.414 7.445c0 4.124-3.308 7.446-7.414 7.446Zm0-13.746a6.27 6.27 0 0 0-6.273 6.3c0 3.494 2.795 6.301 6.273 6.301a6.269 6.269 0 0 0 6.273-6.301c0-3.493-2.794-6.3-6.273-6.3ZM524.773 188.786a5.122 5.122 0 0 1-5.132-5.155 5.122 5.122 0 0 1 5.132-5.154 5.122 5.122 0 0 1 5.132 5.154 5.122 5.122 0 0 1-5.132 5.155Zm0-9.164a3.976 3.976 0 0 0-3.992 4.009 3.977 3.977 0 0 0 3.992 4.01 3.977 3.977 0 0 0 3.992-4.01 3.976 3.976 0 0 0-3.992-4.009Z"/><path fill="#5EA4E3" d="M547.582 193.364c-.342 0-.57-.229-.57-.573v-9.164c0-.343.228-.572.57-.572.343 0 .571.229.571.572v9.164c0 .344-.228.573-.571.573Z"/><path fill="#E6F5FF" d="M663.916 181.334c0-3.379 2.452-6.243 5.702-6.759-.399-.057-.741-.114-1.14-.114-3.764 0-6.843 3.093-6.843 6.873 0 3.78 3.079 6.873 6.843 6.873.399 0 .741-.057 1.14-.115-3.25-.515-5.702-3.379-5.702-6.758Z"/><path fill="#E6F5FF" d="M668.478 188.782c-4.106 0-7.414-3.322-7.414-7.446 0-4.123 3.308-7.445 7.414-7.445.399 0 .798.057 1.254.114a.558.558 0 0 1 .457.573c0 .286-.229.515-.457.573-3.022.515-5.246 3.093-5.246 6.185 0 3.093 2.224 5.671 5.246 6.186.285.057.457.286.457.573 0 .286-.229.515-.457.572-.456.058-.855.115-1.254.115Zm-2.281-13.288c-2.338.917-3.992 3.208-3.992 5.842 0 2.635 1.654 4.926 3.992 5.842a7.363 7.363 0 0 1-2.852-5.842 7.366 7.366 0 0 1 2.852-5.842Z"/><path fill="#5EA4E3" d="M668.478 188.782c-4.106 0-7.414-3.322-7.414-7.446 0-4.123 3.308-7.445 7.414-7.445s7.413 3.322 7.413 7.445c0 4.124-3.307 7.446-7.413 7.446Zm0-13.746a6.269 6.269 0 0 0-6.273 6.3 6.269 6.269 0 0 0 6.273 6.301c3.478 0 6.273-2.807 6.273-6.301a6.27 6.27 0 0 0-6.273-6.3Z"/><path fill="#5EA4E3" d="M668.477 193.364c-.342 0-.571-.229-.571-.573v-9.164c0-.343.229-.572.571-.572.342 0 .571.229.571.572v9.164c0 .344-.229.573-.571.573ZM524.774 193.364c-.343 0-.571-.229-.571-.573v-9.164c0-.343.228-.572.571-.572.342 0 .57.229.57.572v9.164c0 .344-.228.573-.57.573Z"/><path fill="#E6F5FF" d="M755.156 211.121c0-2.119 1.483-3.952 3.422-4.41a3.657 3.657 0 0 0-1.141-.172c-2.509 0-4.562 2.062-4.562 4.582s2.053 4.582 4.562 4.582c.399 0 .798-.057 1.141-.172-1.939-.458-3.422-2.291-3.422-4.41Z"/><path fill="#E6F5FF" d="M757.437 216.278a5.122 5.122 0 0 1-5.132-5.155 5.122 5.122 0 0 1 6.444-4.982c.228.057.399.286.399.572 0 .287-.171.516-.457.573-1.767.458-2.965 2.062-2.965 3.895 0 1.833 1.255 3.436 2.965 3.894.229.058.457.287.457.573 0 .287-.171.516-.457.573-.399 0-.855.057-1.254.057Zm-1.141-8.992c-1.653.516-2.851 2.005-2.851 3.837 0 1.833 1.198 3.38 2.851 3.838a5.132 5.132 0 0 1-1.71-3.838c0-1.489.627-2.863 1.71-3.837Z"/><path fill="#5EA4E3" d="M757.437 216.278a5.122 5.122 0 0 1-5.132-5.155 5.122 5.122 0 0 1 5.132-5.154 5.122 5.122 0 0 1 5.132 5.154 5.122 5.122 0 0 1-5.132 5.155Zm0-9.164a3.976 3.976 0 0 0-3.992 4.009 3.977 3.977 0 0 0 3.992 4.01 3.977 3.977 0 0 0 3.992-4.01 3.976 3.976 0 0 0-3.992-4.009Z"/><path fill="#5EA4E3" d="M757.436 220.856c-.343 0-.571-.229-.571-.572v-9.164c0-.344.228-.573.571-.573.342 0 .571.229.571.573v9.164c0 .343-.229.572-.571.572Z"/><path fill="#E6F5FF" d="M588.641 114.898h9.124l9.124 9.164h-13.686l-4.562-9.164Z"/><path fill="#E6F5FF" d="M606.89 124.636h-13.686c-.228 0-.4-.114-.514-.343l-4.562-9.164c-.114-.172-.057-.401 0-.573a.598.598 0 0 1 .514-.286h9.124c.171 0 .285.057.399.171l9.124 9.164c.171.172.228.401.114.63-.057.287-.285.401-.513.401Zm-13.344-1.145h11.975l-7.983-8.019h-7.984l3.992 8.019ZM675.319 269.542c0-2.978-2.167-5.384-4.904-5.384-.628 0-1.255.115-1.825.401-.571-2.291-2.452-4.009-4.733-4.009-.628 0-1.255.114-1.825.401-.57-2.291-2.452-4.01-4.733-4.01-2.68 0-4.904 2.406-4.904 5.384 0 1.547.57 2.921 1.482 3.895h-.399v4.467h21.556c.228-.401.285-.744.285-1.145Z"/><path fill="#E6F5FF" d="M675.205 271.259H653.65c-.342 0-.57-.229-.57-.573v-4.468c0-.057 0-.171.057-.229-.742-1.031-1.141-2.348-1.141-3.665 0-3.322 2.452-5.957 5.475-5.957 2.281 0 4.276 1.547 5.075 3.838.456-.115.969-.23 1.425-.23 2.281 0 4.277 1.547 5.076 3.838.456-.115.969-.229 1.425-.229 2.966 0 5.418 2.634 5.475 5.899v.057c0 .401-.057.802-.114 1.26-.114.23-.342.459-.628.459Zm-20.985-1.146h20.529c0-.172 0-.344.057-.458v-.057c0-2.692-1.939-4.811-4.334-4.811-.513 0-1.083.114-1.596.343-.171.057-.343.057-.457 0a.43.43 0 0 1-.285-.401c-.513-2.119-2.224-3.551-4.163-3.551a4.01 4.01 0 0 0-1.596.344c-.171.057-.342.057-.456 0a.43.43 0 0 1-.286-.401c-.513-2.119-2.224-3.551-4.162-3.551-2.396 0-4.334 2.176-4.334 4.811 0 1.317.456 2.577 1.368 3.494.171.172.171.401.114.63-.057.172-.171.286-.342.286v3.322h-.057Z"/><path fill="#fff" d="M657.072 270.686h-82.117l18.248-146.624h45.621l18.248 146.624Z"/><path fill="#E6F5FF" d="M597.765 270.69h-22.81l18.248-146.624h13.686l-9.124 146.624Z"/><path fill="#E6F5FF" d="M597.766 271.261h-22.811c-.171 0-.342-.057-.399-.172a.446.446 0 0 1-.114-.458l18.248-146.623c.057-.287.285-.516.571-.516h13.686c.171 0 .285.057.399.172a.62.62 0 0 1 .171.401l-9.124 146.623c-.057.344-.342.573-.627.573Zm-22.183-1.146h21.612l9.067-145.477H593.66l-18.077 145.477Z"/><path fill="#5EA4E3" d="M1439.46 271.259H-1c-.342 0-.57-.229-.57-.573s.228-.573.57-.573h1440.46c.34 0 .57.229.57.573s-.23.573-.57.573Z"/><path fill="#5EA4E3" d="M657.072 271.261h-82.117c-.171 0-.342-.057-.399-.172a.446.446 0 0 1-.114-.458l18.248-146.623c.057-.287.285-.516.571-.516h45.62c.285 0 .513.229.57.516l18.248 146.623c0 .172-.057.344-.114.458a.913.913 0 0 1-.513.172Zm-81.489-1.146h80.805l-18.134-145.477H593.66l-18.077 145.477Z"/><path fill="#5EA4E3" d="M616.013 261.523c1.654 0 3.023 1.375 3.023 3.036v6.128h-6.102v-6.128c.057-1.661 1.425-3.036 3.079-3.036Z"/><path fill="#5EA4E3" d="M619.035 271.259h-6.101c-.343 0-.571-.229-.571-.573v-6.128a3.586 3.586 0 0 1 3.593-3.609 3.585 3.585 0 0 1 3.592 3.609v6.128c.057.344-.171.573-.513.573Zm-5.474-1.146h4.961v-5.555a2.439 2.439 0 0 0-2.452-2.463 2.439 2.439 0 0 0-2.452 2.463v5.555h-.057ZM639.394 129.22h-46.761c-.171 0-.342-.058-.399-.172-.114-.115-.171-.287-.114-.458l.57-4.582c.057-.287.285-.516.57-.516h45.621c.285 0 .513.229.57.516l.57 4.582c0 .171-.057.343-.114.458a.92.92 0 0 1-.513.172Zm-46.134-1.146h45.45l-.457-3.436H593.66l-.4 3.436ZM645.666 179.618H586.36c-.171 0-.342-.057-.399-.172a.446.446 0 0 1-.114-.458l.57-4.582c.057-.286.285-.515.57-.515h58.166c.285 0 .513.229.57.515l.57 4.582c0 .172-.057.344-.114.458a.913.913 0 0 1-.513.172Zm-58.679-1.145h57.995l-.456-3.437h-57.14l-.399 3.437ZM651.94 230.024h-71.852c-.171 0-.342-.057-.399-.171a.448.448 0 0 1-.114-.459l.57-4.582c.057-.286.285-.515.571-.515h70.711c.285 0 .513.229.57.515l.571 4.582c0 .172-.057.344-.115.459a.92.92 0 0 1-.513.171Zm-71.224-1.145h70.54l-.456-3.437h-69.685l-.399 3.437Z"/><path fill="#5EA4E3" d="M638.824 124.636h-45.62c-.228 0-.4-.114-.514-.343l-4.562-9.164c-.114-.172-.057-.401 0-.573a.598.598 0 0 1 .514-.286h54.744c.171 0 .399.114.513.286a.523.523 0 0 1 0 .573l-4.562 9.164c-.114.229-.285.343-.513.343Zm-45.278-1.145h44.936l3.991-8.019h-52.919l3.992 8.019Z"/><path fill="#5EA4E3" d="M643.387 115.474c-.342 0-.571-.23-.571-.573v-9.164c0-.344.229-.573.571-.573.342 0 .571.229.571.573v9.164c0 .343-.229.573-.571.573ZM616.014 115.474c-.342 0-.571-.23-.571-.573v-9.164c0-.344.229-.573.571-.573.342 0 .571.229.571.573v9.164c0 .343-.229.573-.571.573ZM606.891 115.474c-.342 0-.571-.23-.571-.573v-9.164c0-.344.229-.573.571-.573.342 0 .571.229.571.573v9.164c0 .343-.229.573-.571.573ZM625.139 115.474c-.342 0-.571-.23-.571-.573v-9.164c0-.344.229-.573.571-.573.342 0 .571.229.571.573v9.164c0 .343-.229.573-.571.573ZM597.766 115.474c-.342 0-.571-.23-.571-.573v-9.164c0-.344.229-.573.571-.573.342 0 .571.229.571.573v9.164c0 .343-.229.573-.571.573ZM588.641 115.474c-.342 0-.571-.23-.571-.573v-9.164c0-.344.229-.573.571-.573.342 0 .571.229.571.573v9.164c0 .343-.229.573-.571.573Z"/><path fill="#5EA4E3" d="M634.262 115.473h-36.496c-.343 0-.571-.229-.571-.573V82.827c0-.344.228-.573.571-.573h36.496c.342 0 .57.229.57.573V114.9c0 .344-.228.573-.57.573Zm-35.926-1.145h35.356V83.399h-35.356v30.929Z"/><path fill="#fff" d="M619.435 87.406h-6.843v22.91h6.843v-22.91Z"/><path fill="#5EA4E3" d="M619.435 110.891h-6.843c-.342 0-.571-.229-.571-.572v-22.91c0-.344.229-.573.571-.573h6.843c.342 0 .57.229.57.573v22.91c0 .343-.228.572-.57.572Zm-6.273-1.145h5.703V87.981h-5.703v21.765Z"/><path fill="#5EA4E3" d="M645.666 106.31h-59.307c-.342 0-.57-.23-.57-.573 0-.344.228-.573.57-.573h59.307c.342 0 .57.229.57.573 0 .343-.228.573-.57.573ZM588.641 156.711h-75.273c-4.505 0-9.01-1.489-12.66-4.238l-7.299-5.498a20.08 20.08 0 0 0-11.975-4.01H205.431c-.114 0-.228 0-.285-.057l-49.954-29.267a19.874 19.874 0 0 0-10.037-2.749H-4.422c-.342 0-.57-.23-.57-.573 0-.344.228-.573.57-.573h149.577c3.707 0 7.414.974 10.607 2.864l49.84 29.21h275.832c4.505 0 9.01 1.489 12.659 4.238l7.3 5.499a20.085 20.085 0 0 0 11.975 4.009h75.273c.342 0 .571.229.571.573 0 .343-.229.572-.571.572Z"/><path fill="#fff" d="M589.213 157.858c.969 0 1.71-.744 1.71-1.718s-.741-1.718-1.71-1.718c-.97 0-1.711.744-1.711 1.718s.741 1.718 1.711 1.718Z"/><path fill="#5EA4E3" d="M589.213 158.43a2.292 2.292 0 0 1-2.281-2.291 2.292 2.292 0 0 1 2.281-2.291 2.293 2.293 0 0 1 2.281 2.291 2.293 2.293 0 0 1-2.281 2.291Zm0-3.437a1.146 1.146 0 0 0 0 2.291 1.146 1.146 0 0 0 0-2.291ZM506.526 261.523c1.654 0 3.023 1.375 3.023 3.036v6.128h-6.102v-6.128c.057-1.661 1.426-3.036 3.079-3.036Z"/><path fill="#5EA4E3" d="M509.606 271.259h-6.102c-.342 0-.57-.229-.57-.573v-6.128a3.585 3.585 0 0 1 3.592-3.609 3.586 3.586 0 0 1 3.593 3.609v6.128c.057.344-.228.573-.513.573Zm-5.532-1.146h4.961v-5.555a2.439 2.439 0 0 0-2.452-2.463 2.44 2.44 0 0 0-2.452 2.463v5.555h-.057Z"/><path fill="#E6F5FF" d="M200.87 46.172c-2.794 0-5.417.859-7.584 2.348-3.935-6.873-11.348-11.512-19.788-11.512s-15.853 4.64-19.788 11.512a13.365 13.365 0 0 0-7.584-2.348c-5.931 0-11.006 3.837-12.888 9.164h80.577c-1.939-5.327-6.957-9.164-12.945-9.164Z"/><path fill="#E6F5FF" d="M213.758 55.907h-80.52c-.171 0-.342-.115-.456-.23a.56.56 0 0 1-.057-.515 14.27 14.27 0 0 1 13.458-9.565c2.623 0 5.189.745 7.413 2.12 4.22-6.93 11.804-11.283 19.959-11.283s15.739 4.295 19.959 11.283a14.112 14.112 0 0 1 7.413-2.12c6.045 0 11.405 3.838 13.458 9.565a.56.56 0 0 1-.057.516c-.171.114-.342.229-.57.229Zm-79.721-1.145h78.866c-2.053-4.812-6.786-8.019-12.09-8.019-2.623 0-5.132.745-7.299 2.234-.114.114-.285.114-.456.057-.171-.057-.285-.114-.342-.286-3.935-6.873-11.291-11.169-19.218-11.169-7.926 0-15.283 4.296-19.274 11.169-.058.114-.229.229-.343.286-.171.057-.342 0-.456-.057-2.167-1.49-4.676-2.234-7.299-2.234-5.246 0-10.037 3.207-12.089 8.018ZM753.445 37.008c-2.795 0-5.418.859-7.585 2.348-3.935-6.873-11.291-11.512-19.788-11.512-8.496 0-15.853 4.639-19.787 11.512a13.368 13.368 0 0 0-7.585-2.348c-5.93 0-11.006 3.837-12.888 9.164h80.577c-1.939-5.327-7.014-9.164-12.944-9.164Z"/><path fill="#E6F5FF" d="M766.332 46.743h-80.576c-.171 0-.343-.115-.457-.23a.559.559 0 0 1-.057-.515 14.271 14.271 0 0 1 13.458-9.564c2.624 0 5.19.744 7.414 2.119 4.22-6.93 11.804-11.283 19.959-11.283 8.154 0 15.739 4.295 19.958 11.283a14.116 14.116 0 0 1 7.414-2.12c6.044 0 11.405 3.838 13.458 9.565a.559.559 0 0 1-.057.516c-.114.172-.286.229-.514.229Zm-79.721-1.146h78.866c-2.053-4.81-6.786-8.018-12.089-8.018-2.623 0-5.133.745-7.3 2.234-.114.114-.285.114-.456.057-.171-.057-.285-.115-.342-.286-3.992-6.93-11.348-11.169-19.274-11.169-7.927 0-15.283 4.296-19.275 11.169-.057.114-.228.229-.342.286-.171.057-.342 0-.456-.057-2.167-1.432-4.676-2.234-7.3-2.234-5.189 0-9.979 3.207-12.032 8.018ZM520.211 80.537c0-6.358-5.133-11.455-11.405-11.455-6.273 0-11.405 5.098-11.405 11.455 0 .86.114 1.718.285 2.52-1.939-1.604-4.448-2.52-7.128-2.52-6.273 0-11.405 5.097-11.405 11.455h29.653c6.272 0 11.405-5.098 11.405-11.455Z"/><path fill="#E6F5FF" d="M508.805 92.563h-29.653c-.342 0-.57-.229-.57-.573 0-6.643 5.36-12.027 11.975-12.027 2.281 0 4.448.63 6.33 1.833-.057-.401-.057-.86-.057-1.26 0-6.644 5.361-12.028 11.975-12.028 6.615 0 11.976 5.384 11.976 12.028 0 6.643-5.361 12.027-11.976 12.027Zm-29.082-1.145h29.082c5.988 0 10.835-4.869 10.835-10.883 0-6.013-4.847-10.882-10.835-10.882-5.987 0-10.834 4.869-10.834 10.882 0 .802.114 1.604.285 2.406.057.23-.057.458-.228.63a.605.605 0 0 1-.685-.057c-1.938-1.547-4.277-2.406-6.786-2.406-5.759 0-10.549 4.582-10.834 10.31ZM980.976 89.701c0-6.357-5.075-11.455-11.405-11.455-6.33 0-11.405 5.098-11.405 11.455 0 .86.114 1.718.285 2.52-1.938-1.604-4.448-2.52-7.128-2.52-6.33 0-11.405 5.098-11.405 11.455h29.653c6.33 0 11.405-5.098 11.405-11.455Z"/><path fill="#E6F5FF" d="M969.571 101.727h-29.653c-.342 0-.57-.229-.57-.572 0-6.644 5.36-12.028 11.975-12.028 2.281 0 4.448.63 6.33 1.833-.057-.401-.057-.86-.057-1.26 0-6.644 5.36-12.028 11.975-12.028 6.615 0 11.975 5.384 11.975 12.028 0 6.643-5.36 12.027-11.975 12.027Zm-29.083-1.145h29.083c5.988 0 10.835-4.869 10.835-10.882 0-6.014-4.847-10.883-10.835-10.883s-10.835 4.869-10.835 10.883c0 .801.114 1.603.285 2.405.057.23-.057.458-.228.63-.228.115-.456.115-.684-.057-1.939-1.547-4.277-2.406-6.786-2.406-5.76 0-10.55 4.582-10.835 10.31ZM360.54.352c-7.356 0-13.686 4.41-16.594 10.71-2.11-2.348-5.132-3.837-8.497-3.837-4.676 0-8.668 2.806-10.435 6.873h53.204C376.222 6.194 369.037.351 360.54.351Z"/><path fill="#E6F5FF" d="M378.218 14.669h-53.204c-.172 0-.4-.115-.457-.287a.56.56 0 0 1-.057-.515c1.882-4.41 6.216-7.217 10.949-7.217 3.137 0 6.102 1.26 8.326 3.437 3.193-6.3 9.694-10.31 16.765-10.31 8.611 0 16.081 5.842 18.248 14.205.057.171 0 .343-.114.515a.645.645 0 0 1-.456.172Zm-52.292-1.146h51.551c-2.224-7.445-9.124-12.6-16.937-12.6-6.9 0-13.23 4.066-16.081 10.367-.057.171-.228.286-.456.343-.171 0-.399-.057-.513-.172-2.053-2.29-5.018-3.665-8.098-3.665-3.935 0-7.584 2.234-9.466 5.727ZM1332.82 50.754c-7.35 0-13.74 4.41-16.59 10.71-2.11-2.348-5.13-3.837-8.5-3.837-4.68 0-8.67 2.806-10.44 6.873h53.21c-2.05-7.904-9.18-13.746-17.68-13.746Z"/><path fill="#E6F5FF" d="M1350.5 65.071h-53.21c-.17 0-.39-.114-.45-.286s-.12-.344-.06-.516c1.88-4.41 6.22-7.216 10.95-7.216 3.14 0 6.1 1.26 8.33 3.436 3.19-6.3 9.69-10.31 16.76-10.31 8.61 0 16.08 5.843 18.25 14.205.06.172 0 .344-.11.515-.12.172-.29.172-.46.172Zm-52.29-1.145h51.55c-2.23-7.446-9.13-12.6-16.94-12.6-6.9 0-13.23 4.066-16.08 10.366-.06.172-.23.286-.46.344-.17 0-.4-.058-.51-.172-2.05-2.291-5.02-3.666-8.1-3.666-3.93 0-7.58 2.234-9.46 5.728Z"/><path fill="#5EA4E3" d="M431.253 115.474a.519.519 0 0 1-.4-.172l-4.162-4.181-4.163 4.181a.55.55 0 0 1-.799 0l-3.421-3.437a.556.556 0 0 1 0-.802.55.55 0 0 1 .798 0l3.022 3.036 4.163-4.181a.55.55 0 0 1 .799 0l4.163 4.181 3.022-3.036a.55.55 0 0 1 .798 0 .556.556 0 0 1 0 .802l-3.421 3.437a.518.518 0 0 1-.399.172ZM344.573 110.892a.518.518 0 0 1-.399-.172l-4.163-4.181-4.163 4.181a.55.55 0 0 1-.798 0l-3.422-3.437a.556.556 0 0 1 0-.802.55.55 0 0 1 .798 0l3.023 3.036 4.163-4.181a.55.55 0 0 1 .798 0l4.163 4.181 3.022-3.036a.55.55 0 0 1 .799 0 .556.556 0 0 1 0 .802l-3.422 3.437a.518.518 0 0 1-.399.172ZM50.323 76.927a.517.517 0 0 1-.4-.172l-4.162-4.181-4.163 4.18a.55.55 0 0 1-.798 0l-3.422-3.436a.555.555 0 0 1 0-.802.55.55 0 0 1 .798 0l3.023 3.036 4.163-4.181a.55.55 0 0 1 .798 0l4.163 4.181 3.022-3.036a.55.55 0 0 1 .799 0 .555.555 0 0 1 0 .802l-3.422 3.437a.517.517 0 0 1-.4.172Z"/><path fill="#E6F5FF" d="M447.218 165.297a9.155 9.155 0 0 1 6.843-8.878c-.741-.172-1.482-.286-2.281-.286-5.018 0-9.124 4.124-9.124 9.164s4.106 9.164 9.124 9.164c.799 0 1.54-.115 2.281-.287a9.154 9.154 0 0 1-6.843-8.877Z"/><path fill="#E6F5FF" d="M451.78 175.036c-5.36 0-9.694-4.353-9.694-9.737s4.334-9.737 9.694-9.737c.799 0 1.597.115 2.395.344.228.057.457.287.457.573a.559.559 0 0 1-.457.573c-3.763.973-6.387 4.41-6.387 8.304 0 3.895 2.624 7.332 6.387 8.305.228.058.457.287.457.573a.558.558 0 0 1-.457.573c-.798.114-1.596.229-2.395.229Zm0-18.328c-4.733 0-8.554 3.837-8.554 8.591s3.821 8.591 8.554 8.591c-3.136-1.661-5.132-4.925-5.132-8.591a9.78 9.78 0 0 1 5.132-8.591Z"/><path fill="#5EA4E3" d="M451.782 179.622c-.343 0-.571-.229-.571-.573v-9.164c0-.343.228-.573.571-.573.342 0 .57.23.57.573v9.164c0 .344-.228.573-.57.573Z"/><path fill="#5EA4E3" d="M451.78 175.036c-5.36 0-9.694-4.353-9.694-9.737s4.334-9.737 9.694-9.737c5.361 0 9.695 4.353 9.695 9.737s-4.334 9.737-9.695 9.737Zm0-18.328c-4.733 0-8.554 3.837-8.554 8.591s3.821 8.591 8.554 8.591c4.733 0 8.554-3.837 8.554-8.591s-3.821-8.591-8.554-8.591Z"/><path fill="#E6F5FF" d="M82.257 256.941a9.153 9.153 0 0 1 6.843-8.877c-.741-.172-1.482-.287-2.28-.287-5.019 0-9.125 4.124-9.125 9.164s4.106 9.164 9.124 9.164c.799 0 1.54-.114 2.281-.286a9.154 9.154 0 0 1-6.843-8.878Z"/><path fill="#E6F5FF" d="M86.82 266.677c-5.361 0-9.695-4.353-9.695-9.737s4.334-9.737 9.694-9.737c.799 0 1.597.115 2.395.344.228.057.457.286.457.573 0 .286-.172.515-.457.572-3.763.974-6.386 4.41-6.386 8.305 0 3.895 2.623 7.331 6.386 8.305.228.057.457.286.457.573 0 .286-.172.515-.457.572-.798.115-1.596.23-2.395.23Zm0-18.328c-4.734 0-8.554 3.837-8.554 8.591s3.82 8.591 8.553 8.591c-3.136-1.661-5.132-4.926-5.132-8.591a9.779 9.779 0 0 1 5.132-8.591Z"/><path fill="#5EA4E3" d="M86.819 271.259c-.342 0-.57-.229-.57-.573v-9.164c0-.344.228-.573.57-.573.342 0 .57.229.57.573v9.164c0 .344-.228.573-.57.573Z"/><path fill="#5EA4E3" d="M86.82 266.677c-5.361 0-9.695-4.353-9.695-9.737s4.334-9.737 9.694-9.737c5.36 0 9.695 4.353 9.695 9.737s-4.334 9.737-9.695 9.737Zm0-18.328c-4.734 0-8.554 3.837-8.554 8.591s3.82 8.591 8.553 8.591c4.733 0 8.554-3.837 8.554-8.591s-3.82-8.591-8.554-8.591Z"/><path fill="#fff" d="M205.431 144.108c.97 0 1.711-.744 1.711-1.718s-.741-1.718-1.711-1.718c-.969 0-1.71.744-1.71 1.718s.741 1.718 1.71 1.718Z"/><path fill="#5EA4E3" d="M205.431 144.684a2.293 2.293 0 0 1-2.281-2.291 2.293 2.293 0 0 1 2.281-2.291 2.292 2.292 0 0 1 2.281 2.291 2.292 2.292 0 0 1-2.281 2.291Zm0-3.437a1.147 1.147 0 0 0 0 2.291 1.146 1.146 0 0 0 0-2.291Z"/><path fill="#fff" d="M406.16 134.944c.969 0 1.711-.744 1.711-1.718s-.742-1.718-1.711-1.718c-.969 0-1.711.744-1.711 1.718s.742 1.718 1.711 1.718Z"/><path fill="#5EA4E3" d="M406.16 135.519a2.292 2.292 0 0 1 0-4.581 2.292 2.292 0 0 1 2.281 2.29 2.292 2.292 0 0 1-2.281 2.291Zm0-3.436a1.147 1.147 0 0 0 0 2.291 1.146 1.146 0 0 0 0-2.291Z"/><path fill="#fff" d="M397.035 263.241c.969 0 1.711-.744 1.711-1.718s-.742-1.718-1.711-1.718c-.969 0-1.711.744-1.711 1.718s.742 1.718 1.711 1.718Z"/><path fill="#5EA4E3" d="M397.035 263.816a2.292 2.292 0 0 1-2.281-2.291 2.292 2.292 0 0 1 2.281-2.291 2.293 2.293 0 0 1 2.281 2.291 2.293 2.293 0 0 1-2.281 2.291Zm0-3.436a1.147 1.147 0 0 0 0 2.291 1.147 1.147 0 0 0 0-2.291Z"/><path fill="#fff" d="M100.506 162.44c.969 0 1.71-.744 1.71-1.718s-.741-1.718-1.71-1.718c-.97 0-1.711.744-1.711 1.718s.741 1.718 1.711 1.718Z"/><path fill="#5EA4E3" d="M100.506 163.012a2.293 2.293 0 0 1-2.281-2.291 2.293 2.293 0 0 1 2.281-2.291 2.293 2.293 0 0 1 2.281 2.291 2.293 2.293 0 0 1-2.281 2.291Zm0-3.437a1.146 1.146 0 0 0 0 2.291 1.146 1.146 0 0 0 0-2.291ZM839.554 193.364h-72.365c-3.479 0-6.843-1.26-9.467-3.608L724.42 160.03a13.146 13.146 0 0 0-8.725-3.322h-72.308c-.342 0-.571-.229-.571-.573 0-.343.229-.573.571-.573h72.365a14.16 14.16 0 0 1 9.466 3.609l33.303 29.725a13.139 13.139 0 0 0 8.725 3.322h72.308c.342 0 .57.229.57.573s-.228.573-.57.573Z"/><path fill="#5EA4E3" d="M1142.93 179.622H746.602c-.343 0-.571-.229-.571-.573 0-.343.228-.572.571-.572h396.328c.34 0 .57.229.57.572 0 .344-.23.573-.57.573Z"/><path fill="#5EA4E3" d="M1099.59 179.62c-19.85 0-37.07-15.636-45.62-31.443-9.07 16.609-26.46 26.861-45.62 26.861-.34 0-.57-.229-.57-.572 0-.344.23-.573.57-.573 19.1 0 36.38-10.424 45.1-27.206.18-.401.8-.401 1.03 0 8.21 15.808 25.32 31.788 45.11 31.788.34 0 .57.229.57.573 0 .343-.23.572-.57.572Z"/><path fill="#5EA4E3" d="M1008.35 175.038c-19.163 0-36.555-10.252-45.623-26.861-9.067 16.609-26.459 26.861-45.62 26.861-.342 0-.57-.229-.57-.572 0-.344.228-.573.57-.573 19.104 0 36.382-10.424 45.107-27.206.171-.401.799-.401 1.027 0 8.725 16.782 26.003 27.206 45.109 27.206.34 0 .57.229.57.573 0 .343-.23.572-.57.572ZM871.489 193.364c-.343 0-.571-.229-.571-.573v-45.82c0-.343.228-.573.571-.573.342 0 .57.23.57.573v45.82c0 .344-.228.573-.57.573ZM876.049 179.62c-.342 0-.57-.229-.57-.573V154.19c0-.344.228-.573.57-.573.343 0 .571.229.571.573v24.857c0 .344-.228.573-.571.573ZM880.612 179.619c-.343 0-.571-.229-.571-.573v-19.645c0-.344.228-.573.571-.573.342 0 .57.229.57.573v19.645c0 .344-.228.573-.57.573ZM885.172 179.619c-.342 0-.57-.229-.57-.573v-15.579c0-.343.228-.572.57-.572.343 0 .571.229.571.572v15.579c0 .344-.228.573-.571.573ZM889.735 179.618c-.343 0-.571-.229-.571-.572v-12.372c0-.343.228-.572.571-.572.342 0 .57.229.57.572v12.372c0 .343-.228.572-.57.572ZM894.297 179.622c-.342 0-.57-.229-.57-.573v-9.851c0-.344.228-.573.57-.573.343 0 .571.229.571.573v9.851c0 .344-.228.573-.571.573ZM898.86 179.62c-.343 0-.571-.229-.571-.573v-7.904c0-.344.228-.573.571-.573.342 0 .57.229.57.573v7.904c0 .344-.228.573-.57.573ZM903.422 179.619c-.342 0-.57-.229-.57-.573v-6.415c0-.343.228-.572.57-.572.343 0 .571.229.571.572v6.415c0 .344-.228.573-.571.573ZM907.983 179.619c-.343 0-.571-.229-.571-.573v-5.383c0-.344.228-.573.571-.573.342 0 .57.229.57.573v5.383c0 .344-.228.573-.57.573ZM912.545 179.618c-.342 0-.57-.229-.57-.573v-4.754c0-.343.228-.572.57-.572.343 0 .571.229.571.572v4.754c0 .344-.228.573-.571.573Z"/><path fill="#5EA4E3" d="M958.164 179.62c-.342 0-.57-.229-.57-.573V154.19c0-.344.228-.573.57-.573.343 0 .571.229.571.573v24.857c0 .344-.228.573-.571.573ZM953.604 179.619c-.343 0-.571-.229-.571-.573v-19.645c0-.344.228-.573.571-.573.342 0 .57.229.57.573v19.645c0 .344-.228.573-.57.573ZM949.041 179.619c-.342 0-.57-.229-.57-.573v-15.579c0-.343.228-.572.57-.572.343 0 .571.229.571.572v15.579c0 .344-.228.573-.571.573ZM944.479 179.618c-.343 0-.571-.229-.571-.572v-12.372c0-.343.228-.572.571-.572.342 0 .571.229.571.572v12.372c0 .343-.229.572-.571.572ZM939.918 179.622c-.342 0-.57-.229-.57-.573v-9.851c0-.344.228-.573.57-.573.343 0 .571.229.571.573v9.851c0 .344-.228.573-.571.573ZM935.356 179.62c-.343 0-.571-.229-.571-.573v-7.904c0-.344.228-.573.571-.573.342 0 .57.229.57.573v7.904c0 .344-.228.573-.57.573ZM930.793 179.619c-.342 0-.57-.229-.57-.573v-6.415c0-.343.228-.572.57-.572.343 0 .571.229.571.572v6.415c0 .344-.228.573-.571.573ZM926.231 179.619c-.343 0-.571-.229-.571-.573v-5.383c0-.344.228-.573.571-.573.342 0 .57.229.57.573v5.383c0 .344-.228.573-.57.573ZM921.668 179.618c-.342 0-.57-.229-.57-.573v-4.754c0-.343.228-.572.57-.572.343 0 .571.229.571.572v4.754c0 .344-.228.573-.571.573ZM1049.41 179.62c-.35 0-.57-.229-.57-.573V154.19c0-.344.22-.573.57-.573.34 0 .57.229.57.573v24.857c0 .344-.23.573-.57.573ZM1044.84 179.619c-.34 0-.57-.229-.57-.573v-19.645c0-.344.23-.573.57-.573.35 0 .57.229.57.573v19.645c0 .344-.22.573-.57.573ZM1040.28 179.619c-.34 0-.57-.229-.57-.573v-15.579c0-.343.23-.572.57-.572.34 0 .57.229.57.572v15.579c0 .344-.23.573-.57.573ZM1035.72 179.618c-.34 0-.57-.229-.57-.572v-12.372c0-.343.23-.572.57-.572.34 0 .57.229.57.572v12.372c0 .343-.23.572-.57.572ZM1031.16 179.622c-.34 0-.57-.229-.57-.573v-9.851c0-.344.23-.573.57-.573.34 0 .57.229.57.573v9.851c0 .344-.23.573-.57.573ZM1026.6 179.62c-.35 0-.57-.229-.57-.573v-7.904c0-.344.22-.573.57-.573.34 0 .57.229.57.573v7.904c0 .344-.23.573-.57.573ZM1022.04 179.619c-.35 0-.58-.229-.58-.573v-6.415c0-.343.23-.572.58-.572.34 0 .57.229.57.572v6.415c0 .344-.23.573-.57.573ZM1017.47 179.619c-.34 0-.57-.229-.57-.573v-5.383c0-.344.23-.573.57-.573.35 0 .57.229.57.573v5.383c0 .344-.22.573-.57.573ZM1012.91 179.618c-.34 0-.57-.229-.57-.573v-4.754c0-.343.23-.572.57-.572.34 0 .57.229.57.572v4.754c0 .344-.23.573-.57.573ZM1058.53 179.619c-.34 0-.57-.229-.57-.573v-24.571c0-.344.23-.573.57-.573.34 0 .57.229.57.573v24.571c0 .344-.23.573-.57.573ZM1063.09 179.622c-.34 0-.57-.229-.57-.573v-18.328c0-.343.23-.573.57-.573.34 0 .57.23.57.573v18.328c0 .344-.23.573-.57.573ZM1067.65 179.619c-.34 0-.57-.229-.57-.573v-14.032c0-.343.23-.573.57-.573.35 0 .58.23.58.573v14.032c0 .344-.23.573-.58.573ZM1072.22 179.619c-.35 0-.57-.229-.57-.573v-10.137c0-.344.22-.573.57-.573.34 0 .57.229.57.573v10.137c0 .344-.23.573-.57.573ZM1076.78 179.621c-.34 0-.57-.229-.57-.572v-6.988c0-.344.23-.573.57-.573.34 0 .57.229.57.573v6.988c0 .343-.23.572-.57.572ZM1081.34 179.618c-.34 0-.57-.229-.57-.573v-4.41c0-.343.23-.573.57-.573.34 0 .57.23.57.573v4.41c0 .344-.23.573-.57.573ZM1085.9 179.62c-.34 0-.57-.229-.57-.573v-2.463c0-.343.23-.572.57-.572.35 0 .57.229.57.572v2.463c0 .344-.22.573-.57.573ZM866.926 179.619c-.342 0-.571-.229-.571-.573v-24.571c0-.344.229-.573.571-.573.343 0 .571.229.571.573v24.571c0 .344-.228.573-.571.573ZM862.364 179.622c-.343 0-.571-.229-.571-.573v-18.328c0-.343.228-.573.571-.573.342 0 .57.23.57.573v18.328c0 .344-.228.573-.57.573ZM857.801 179.619c-.342 0-.57-.229-.57-.573v-14.032c0-.343.228-.573.57-.573.343 0 .571.23.571.573v14.032c0 .344-.228.573-.571.573ZM853.239 179.619c-.343 0-.571-.229-.571-.573v-10.137c0-.344.228-.573.571-.573.342 0 .57.229.57.573v10.137c0 .344-.228.573-.57.573ZM848.678 179.621c-.342 0-.571-.229-.571-.572v-6.988c0-.344.229-.573.571-.573.342 0 .571.229.571.573v6.988c0 .343-.229.572-.571.572ZM844.116 179.618c-.343 0-.571-.229-.571-.573v-4.41c0-.343.228-.573.571-.573.342 0 .57.23.57.573v4.41c0 .344-.228.573-.57.573ZM839.553 179.62c-.342 0-.57-.229-.57-.573v-2.463c0-.343.228-.572.57-.572.343 0 .571.229.571.572v2.463c0 .344-.228.573-.571.573ZM967.289 179.62c-.342 0-.57-.229-.57-.573V154.19c0-.344.228-.573.57-.573.343 0 .571.229.571.573v24.857c0 .344-.228.573-.571.573ZM971.852 179.619c-.342 0-.571-.229-.571-.573v-19.645c0-.344.229-.573.571-.573.342 0 .571.229.571.573v19.645c0 .344-.229.573-.571.573ZM976.414 179.619c-.342 0-.57-.229-.57-.573v-15.579c0-.343.228-.572.57-.572.343 0 .571.229.571.572v15.579c0 .344-.228.573-.571.573ZM980.977 179.618c-.342 0-.571-.229-.571-.572v-12.372c0-.343.229-.572.571-.572.342 0 .571.229.571.572v12.372c0 .343-.229.572-.571.572ZM985.539 179.622c-.342 0-.57-.229-.57-.573v-9.851c0-.344.228-.573.57-.573.343 0 .571.229.571.573v9.851c0 .344-.228.573-.571.573ZM990.1 179.62c-.342 0-.571-.229-.571-.573v-7.904c0-.344.229-.573.571-.573.342 0 .571.229.571.573v7.904c0 .344-.229.573-.571.573ZM994.662 179.619c-.342 0-.57-.229-.57-.573v-6.415c0-.343.228-.572.57-.572.343 0 .571.229.571.572v6.415c0 .344-.228.573-.571.573ZM999.225 179.619c-.342 0-.571-.229-.571-.573v-5.383c0-.344.229-.573.571-.573.342 0 .571.229.571.573v5.383c0 .344-.229.573-.571.573ZM1003.79 179.618c-.35 0-.58-.229-.58-.573v-4.754c0-.343.23-.572.58-.572.34 0 .57.229.57.572v4.754c0 .344-.23.573-.57.573ZM962.727 193.364c-.342 0-.571-.229-.571-.573v-45.82c0-.343.229-.573.571-.573.342 0 .571.23.571.573v45.82c0 .344-.229.573-.571.573ZM1053.97 193.364c-.34 0-.57-.229-.57-.573v-45.82c0-.343.23-.573.57-.573.34 0 .57.23.57.573v45.82c0 .344-.23.573-.57.573ZM917.108 179.618c-.343 0-.571-.229-.571-.573v-4.582c0-.343.228-.572.571-.572.342 0 .57.229.57.572v4.582c0 .344-.228.573-.57.573ZM1008.35 179.618c-.34 0-.57-.229-.57-.573v-4.582c0-.343.23-.572.57-.572.34 0 .57.229.57.572v4.582c0 .344-.23.573-.57.573Z"/><path fill="#fff" d="M962.726 180.769c.97 0 1.711-.745 1.711-1.719 0-.973-.741-1.718-1.711-1.718-.969 0-1.71.745-1.71 1.718 0 .974.741 1.719 1.71 1.719Z"/><path fill="#5EA4E3" d="M962.726 181.34a2.293 2.293 0 0 1-2.281-2.291 2.293 2.293 0 0 1 2.281-2.291 2.292 2.292 0 0 1 2.281 2.291 2.292 2.292 0 0 1-2.281 2.291Zm0-3.437a1.147 1.147 0 0 0 0 2.291 1.146 1.146 0 0 0 0-2.291Z"/><path fill="#fff" d="M871.488 180.769c.97 0 1.711-.745 1.711-1.719 0-.973-.741-1.718-1.711-1.718-.969 0-1.711.745-1.711 1.718 0 .974.742 1.719 1.711 1.719Z"/><path fill="#5EA4E3" d="M871.488 181.34a2.292 2.292 0 0 1-2.281-2.291 2.292 2.292 0 0 1 2.281-2.291 2.292 2.292 0 0 1 2.281 2.291 2.292 2.292 0 0 1-2.281 2.291Zm0-3.437a1.147 1.147 0 0 0 0 2.291 1.147 1.147 0 0 0 0-2.291Z"/><path fill="#fff" d="M1053.97 180.769c.97 0 1.71-.745 1.71-1.719 0-.973-.74-1.718-1.71-1.718s-1.71.745-1.71 1.718c0 .974.74 1.719 1.71 1.719Z"/><path fill="#5EA4E3" d="M1053.97 181.34a2.288 2.288 0 0 1-2.28-2.291c0-1.26 1.02-2.291 2.28-2.291 1.25 0 2.28 1.031 2.28 2.291s-1.03 2.291-2.28 2.291Zm0-3.437c-.63 0-1.14.516-1.14 1.146 0 .63.51 1.145 1.14 1.145.63 0 1.14-.515 1.14-1.145s-.51-1.146-1.14-1.146ZM1122.4 193.364c-.17 0-.34-.115-.46-.229-.17-.287-.11-.63.17-.802l35.87-24.056c3.48-2.348 7.53-3.551 11.69-3.551h137.15c4.5 0 8.95-1.546 12.49-4.41l11.57-9.278a21.133 21.133 0 0 1 13.18-4.64h94.26c.34 0 .57.23.57.573 0 .344-.23.573-.57.573H1344a19.91 19.91 0 0 0-12.49 4.41l-11.58 9.279a21.09 21.09 0 0 1-13.17 4.639h-137.14c-3.94 0-7.76 1.145-11.07 3.379l-35.87 24.055c-.05 0-.17.058-.28.058Z"/><path fill="#5EA4E3" d="M1263.82 165.875a.53.53 0 0 1-.4-.171c-.23-.229-.17-.573.06-.802l39.75-35.969c3.87-3.493 8.89-5.441 14.08-5.441h122.15c.34 0 .57.229.57.573s-.23.573-.57.573h-122.15a19.76 19.76 0 0 0-13.34 5.154l-39.75 35.969c-.11.057-.28.114-.4.114ZM775.743 220.857h-28.057c-5.645 0-10.949-2.176-14.94-6.185l-15.34-15.407c-3.764-3.78-8.782-5.842-14.142-5.842h-55.885c-.342 0-.57-.229-.57-.573s.228-.573.57-.573h55.942c5.645 0 10.949 2.177 14.94 6.186l15.34 15.407c3.764 3.78 8.782 5.842 14.142 5.842H775.8c.342 0 .57.229.57.573 0 .343-.285.572-.627.572ZM864.644 252.931c-3.25 0-5.931-1.546-6.843-2.176-.912.63-3.593 2.176-6.843 2.176s-5.931-1.546-6.843-2.176c-.912.63-3.593 2.176-6.843 2.176-3.935 0-7.071-2.291-7.185-2.405-.228-.172-.285-.573-.114-.802.171-.229.57-.286.798-.115.057 0 2.965 2.177 6.501 2.177 3.535 0 6.501-2.177 6.501-2.177.228-.171.456-.171.684 0 .057 0 2.965 2.177 6.501 2.177 3.536 0 6.501-2.177 6.501-2.177.228-.171.456-.171.684 0 .057 0 2.965 2.177 6.501 2.177 3.536 0 6.501-2.177 6.501-2.177.228-.171.627-.114.798.115.171.229.114.63-.114.802-.114.114-3.25 2.405-7.185 2.405ZM914.826 225.439c-3.251 0-5.931-1.546-6.843-2.176-.913.63-3.593 2.176-6.844 2.176-3.25 0-5.93-1.546-6.843-2.176-.912.63-3.592 2.176-6.843 2.176-3.934 0-7.071-2.291-7.185-2.405-.228-.172-.285-.573-.114-.802.171-.229.57-.287.799-.115.057 0 2.965 2.177 6.5 2.177 3.536 0 6.501-2.177 6.501-2.177.228-.172.456-.172.685 0 .057 0 2.965 2.177 6.5 2.177 3.536 0 6.501-2.177 6.501-2.177.228-.172.457-.172.685 0 .057 0 2.965 2.177 6.501 2.177 3.535 0 6.5-2.177 6.5-2.177.229-.172.628-.114.799.115.171.229.114.63-.114.802-.114.114-3.251 2.405-7.185 2.405ZM1112.13 225.442c-3.25 0-5.93-1.547-6.84-2.177-.91.63-3.59 2.177-6.84 2.177s-5.93-1.547-6.84-2.177c-.92.63-3.6 2.177-6.85 2.177-3.93 0-7.07-2.291-7.18-2.406-.23-.172-.29-.573-.12-.802.17-.229.57-.286.8-.114.06 0 2.97 2.176 6.5 2.176 3.54 0 6.5-2.176 6.5-2.176l.35-.229.34.229c.05 0 2.96 2.176 6.5 2.176 3.53 0 6.5-2.176 6.5-2.176l.34-.229.34.229c.06 0 2.97 2.176 6.5 2.176 3.54 0 6.51-2.176 6.51-2.176.22-.172.62-.115.79.114.17.229.12.63-.11.802-.11.115-3.25 2.406-7.19 2.406ZM1247.85 246.06c-3.25 0-5.93-1.546-6.84-2.176-.91.63-3.59 2.176-6.84 2.176s-5.93-1.546-6.84-2.176c-.92.63-3.6 2.176-6.85 2.176-3.93 0-7.07-2.291-7.18-2.405-.23-.172-.29-.573-.12-.802.17-.229.57-.287.8-.115.06 0 2.97 2.177 6.5 2.177 3.54 0 6.5-2.177 6.5-2.177.23-.172.46-.172.69 0 .06 0 2.96 2.177 6.5 2.177 3.53 0 6.5-2.177 6.5-2.177.23-.172.46-.172.68 0 .06 0 2.97 2.177 6.5 2.177 3.54 0 6.51-2.177 6.51-2.177.22-.172.62-.114.79.115.18.229.12.63-.11.802-.11.114-3.25 2.405-7.19 2.405ZM1389.28 227.732c-3.25 0-5.93-1.546-6.85-2.176-.91.63-3.59 2.176-6.84 2.176s-5.93-1.546-6.84-2.176c-.91.63-3.59 2.176-6.85 2.176-3.93 0-7.07-2.291-7.18-2.406-.23-.171-.29-.572-.11-.801.17-.229.57-.287.79-.115.06 0 2.97 2.177 6.5 2.177 3.54 0 6.51-2.177 6.51-2.177.22-.172.45-.172.68 0 .06 0 2.97 2.177 6.5 2.177 3.54 0 6.5-2.177 6.5-2.177.23-.172.46-.172.69 0 .05 0 2.96 2.177 6.5 2.177 3.53 0 6.5-2.177 6.5-2.177.23-.172.62-.114.8.115.17.229.11.63-.12.801-.11.115-3.25 2.406-7.18 2.406ZM665.968 257.971c-.228 0-.456-.172-.57-.401a6.284 6.284 0 0 0-6.045-4.639c-1.482 0-2.851.515-3.991 1.432-.229.229-.628.171-.799-.058-.228-.229-.171-.63.057-.802a7.512 7.512 0 0 1 4.733-1.718 7.381 7.381 0 0 1 7.128 5.499c.058.286-.114.63-.399.687h-.114Z"/><path fill="#5EA4E3" d="M675.092 262.553c-.228 0-.456-.172-.57-.401a6.285 6.285 0 0 0-6.045-4.639 6.411 6.411 0 0 0-3.649 1.145c-.286.172-.628.115-.799-.114-.171-.287-.114-.63.114-.802 1.255-.917 2.737-1.375 4.277-1.375a7.381 7.381 0 0 1 7.128 5.499c.057.286-.114.63-.399.687h-.057Z"/><path fill="#5EA4E3" d="M684.046 271.26c-.057 0-.114 0-.171-.057-.285-.115-.457-.459-.343-.745a6.575 6.575 0 0 0 .343-2.119c0-3.494-2.795-6.3-6.273-6.3-1.027 0-2.053.286-2.965.744-.286.172-.628.058-.799-.229-.171-.286-.057-.63.228-.802 1.084-.572 2.281-.916 3.536-.916 4.106 0 7.413 3.322 7.413 7.446 0 .859-.114 1.661-.399 2.462-.114.344-.342.516-.57.516Z"/><path fill="#fff" d="M529.336 272.405c.969 0 1.711-.744 1.711-1.718s-.742-1.718-1.711-1.718c-.97 0-1.711.744-1.711 1.718s.741 1.718 1.711 1.718Z"/><path fill="#5EA4E3" d="M529.336 272.98a2.292 2.292 0 0 1-2.281-2.291 2.292 2.292 0 0 1 2.281-2.291 2.293 2.293 0 0 1 2.281 2.291 2.293 2.293 0 0 1-2.281 2.291Zm0-3.436a1.146 1.146 0 0 0 0 2.291 1.147 1.147 0 0 0 0-2.291Z"/><path fill="#fff" d="M1373.31 121.773h-4.56l2.28-9.164 2.28 9.164Z"/><path fill="#5EA4E3" d="M1373.31 122.343h-4.56a.531.531 0 0 1-.46-.229c-.11-.172-.17-.343-.11-.515l2.28-9.164c.06-.229.28-.458.57-.458.29 0 .51.171.57.458l2.28 9.164c.06.172 0 .343-.11.515a.531.531 0 0 1-.46.229Zm-3.82-1.145h3.08l-1.54-6.243-1.54 6.243Z"/><path fill="#5EA4E3" d="M1371.03 124.636c-.34 0-.57-.229-.57-.573v-2.291c0-.344.23-.573.57-.573.34 0 .57.229.57.573v2.291c0 .344-.23.573-.57.573Z"/><path fill="#fff" d="M1400.68 121.773h-4.56l2.28-9.164 2.28 9.164Z"/><path fill="#5EA4E3" d="M1400.68 122.343h-4.56a.531.531 0 0 1-.46-.229c-.11-.172-.17-.343-.11-.515l2.28-9.164c.06-.229.29-.458.57-.458.29 0 .51.171.57.458l2.28 9.164c.06.172 0 .343-.11.515a.531.531 0 0 1-.46.229Zm-3.82-1.145h3.08l-1.54-6.243-1.54 6.243Z"/><path fill="#5EA4E3" d="M1398.4 124.636c-.34 0-.57-.229-.57-.573v-2.291c0-.344.23-.573.57-.573.34 0 .57.229.57.573v2.291c0 .344-.23.573-.57.573Z"/><path fill="#fff" d="M1396.12 188.211h9.13l-4.57-18.328-4.56 18.328Z"/><path fill="#E6F5FF" d="M1402.96 188.211h2.29l-4.57-18.328 2.28 18.328Z"/><path fill="#E6F5FF" d="M1405.24 188.785h-2.28c-.28 0-.51-.229-.57-.515l-2.28-18.328c-.06-.287.17-.573.46-.63.28-.058.57.114.68.401l4.56 18.328c.06.171 0 .343-.11.515s-.28.229-.46.229Zm-1.76-1.145h1.02l-2.11-8.42 1.09 8.42Z"/><path fill="#5EA4E3" d="M1405.24 188.785h-9.12a.532.532 0 0 1-.46-.23.551.551 0 0 1-.11-.515l4.56-18.328c.06-.229.29-.458.57-.458.29 0 .52.172.57.458l4.56 18.328c.06.172 0 .344-.11.515-.11.172-.28.23-.46.23Zm-8.38-1.146h7.64l-3.82-15.407-3.82 15.407Z"/><path fill="#5EA4E3" d="M1400.68 193.364c-.34 0-.57-.229-.57-.573v-9.164c0-.343.23-.572.57-.572.34 0 .57.229.57.572v9.164c0 .344-.23.573-.57.573Z"/><path fill="#fff" d="M1373.31 188.211h9.12l-4.56-18.328-4.56 18.328Z"/><path fill="#E6F5FF" d="M1380.15 188.211h2.28l-4.56-18.328 2.28 18.328Z"/><path fill="#E6F5FF" d="M1382.43 188.785h-2.28c-.28 0-.51-.229-.57-.515l-2.28-18.328c-.06-.287.17-.573.46-.63.28-.058.57.114.68.401l4.56 18.328c.06.171 0 .343-.11.515s-.28.229-.46.229Zm-1.76-1.145h1.02l-2.11-8.42 1.09 8.42Z"/><path fill="#5EA4E3" d="M1382.43 188.785h-9.12a.532.532 0 0 1-.46-.23c-.11-.114-.17-.343-.11-.515l4.56-18.328c.06-.229.29-.458.57-.458.29 0 .51.172.57.458l4.56 18.328c.06.172 0 .344-.11.515-.11.172-.29.23-.46.23Zm-8.38-1.146h7.64l-3.82-15.407-3.82 15.407Z"/><path fill="#5EA4E3" d="M1377.87 193.364c-.34 0-.57-.229-.57-.573v-9.164c0-.343.23-.572.57-.572.34 0 .57.229.57.572v9.164c0 .344-.23.573-.57.573Z"/><path fill="#fff" d="M1350.5 188.211h9.12l-4.56-18.328-4.56 18.328Z"/><path fill="#E6F5FF" d="M1357.35 188.211h2.28l-4.57-18.328 2.29 18.328Z"/><path fill="#E6F5FF" d="M1359.63 188.785h-2.29c-.28 0-.51-.229-.57-.515l-2.28-18.328c-.05-.287.17-.573.46-.63.28-.058.57.114.68.401l4.57 18.328c.05.171 0 .343-.12.515a.504.504 0 0 1-.45.229Zm-1.77-1.145h1.02l-2.11-8.42 1.09 8.42Z"/><path fill="#5EA4E3" d="M1359.62 188.785h-9.12a.532.532 0 0 1-.46-.23c-.11-.114-.17-.343-.11-.515l4.56-18.328c.06-.229.29-.458.57-.458.29 0 .51.172.57.458l4.56 18.328c.06.172 0 .344-.11.515-.11.172-.29.23-.46.23Zm-8.38-1.146h7.64l-3.82-15.407-3.82 15.407Z"/><path fill="#5EA4E3" d="M1355.06 193.364c-.34 0-.57-.229-.57-.573v-9.164c0-.343.23-.572.57-.572.35 0 .57.229.57.572v9.164c0 .344-.22.573-.57.573Z"/><path fill="#fff" d="m1008.35 206.539 13.68 36.656h-41.053l27.373-36.656Z"/><path fill="#E6F5FF" d="m1008.35 206.539-18.249 36.656h-9.124l27.373-36.656Z"/><path fill="#E6F5FF" d="M990.1 243.77h-9.124c-.228 0-.399-.114-.513-.344-.114-.171-.057-.401.057-.572l27.37-36.656a.617.617 0 0 1 .74-.172c.23.172.35.458.23.745l-18.247 36.655c-.114.23-.285.344-.513.344Zm-7.984-1.145h7.642l15.282-30.642-22.924 30.642Z"/><path fill="#5EA4E3" d="M1008.35 248.352c-.34 0-.57-.229-.57-.573v-41.238c0-.343.23-.572.57-.572.34 0 .57.229.57.572v41.238c0 .344-.23.573-.57.573Z"/><path fill="#5EA4E3" d="M1022.03 243.77h-41.054c-.228 0-.399-.114-.513-.344-.114-.171-.057-.401.057-.572l27.37-36.656c.12-.172.34-.229.51-.229.23.057.4.172.46.343l13.69 36.656c.05.172.05.401-.06.516-.11.172-.28.286-.46.286Zm-39.914-1.145h39.124l-13.06-34.881-26.064 34.881ZM1042.56 252.931c-3.25 0-5.93-1.546-6.84-2.176-.91.63-3.59 2.176-6.84 2.176s-5.93-1.546-6.85-2.176c-.91.63-3.59 2.176-6.84 2.176s-5.93-1.546-6.84-2.176c-.91.63-3.59 2.176-6.84 2.176-3.255 0-5.935-1.546-6.848-2.176-.912.63-3.592 2.176-6.843 2.176-3.25 0-5.93-1.546-6.843-2.176-.912.63-3.592 2.176-6.843 2.176-3.935 0-7.071-2.291-7.185-2.405-.228-.172-.285-.573-.114-.802.171-.229.57-.286.798-.115.057 0 2.966 2.177 6.501 2.177 3.536 0 6.501-2.177 6.501-2.177.228-.171.456-.171.684 0 .057 0 2.966 2.177 6.501 2.177 3.536 0 6.501-2.177 6.501-2.177.228-.171.456-.171.684 0 .057 0 2.966 2.177 6.506 2.177 3.53 0 6.5-2.177 6.5-2.177.22-.171.45-.171.68 0 .06 0 2.97 2.177 6.5 2.177 3.54 0 6.5-2.177 6.5-2.177.23-.171.46-.171.69 0 .05 0 2.96 2.177 6.5 2.177 3.53 0 6.5-2.177 6.5-2.177.23-.171.45-.171.68 0 .06 0 2.97 2.177 6.5 2.177 3.54 0 6.5-2.177 6.5-2.177.23-.171.63-.114.8.115.17.229.12.63-.11.802-.12.114-3.25 2.405-7.19 2.405Z"/><path fill="#fff" d="M994.661 250.068s3.08 2.291 6.839 2.291c3.77 0 6.85-2.291 6.85-2.291s3.08 2.291 6.84 2.291c.86 0 1.65-.114 2.45-.286l2.11-4.296h-34.213l4.334 4.353c2.794-.573 4.79-2.062 4.79-2.062Z"/><path fill="#5EA4E3" d="M1015.19 252.931c-3.25 0-5.93-1.547-6.84-2.177-.91.63-3.59 2.177-6.85 2.177-3.246 0-5.926-1.547-6.838-2.177-.685.458-2.453 1.489-4.677 1.948a.46.46 0 0 1-.513-.172l-4.334-4.353c-.171-.172-.228-.401-.114-.63.114-.229.285-.344.513-.344h34.213c.17 0 .4.115.52.286.11.172.11.401 0 .573l-2.11 4.296a.433.433 0 0 1-.4.286c-.86.172-1.71.287-2.57.287Zm-6.84-3.437c.11 0 .23.057.34.115.06 0 2.97 2.176 6.5 2.176.68 0 1.37-.057 2.05-.229l1.6-3.207h-31.934l3.136 3.15c2.453-.573 4.22-1.89 4.277-1.89.228-.172.457-.172.685 0 .057 0 2.965 2.176 6.496 2.176 3.54 0 6.51-2.176 6.51-2.176.11-.058.22-.115.34-.115Z"/><path fill="#5EA4E3" d="M1022.03 248.349h-38.772c-.342 0-.57-.229-.57-.573s.228-.573.57-.573h38.772c.35 0 .58.229.58.573s-.23.573-.58.573ZM825.867 179.62c-.342 0-.57-.229-.57-.572 0-.344.228-.573.57-.573 19.788 0 36.895-15.98 45.107-31.788.171-.401.799-.401 1.027 0 8.724 16.782 26.003 27.206 45.107 27.206.342 0 .57.229.57.573 0 .343-.228.572-.57.572-19.161 0-36.554-10.252-45.621-26.861-8.553 15.807-25.775 31.443-45.62 31.443Z"/><path fill="#fff" d="M761.998 244.913c.969 0 1.711-.745 1.711-1.718 0-.974-.742-1.718-1.711-1.718-.97 0-1.711.744-1.711 1.718 0 .973.741 1.718 1.711 1.718Z"/><path fill="#5EA4E3" d="M761.998 245.488a2.292 2.292 0 0 1-2.281-2.291 2.292 2.292 0 0 1 2.281-2.291 2.293 2.293 0 0 1 2.281 2.291 2.293 2.293 0 0 1-2.281 2.291Zm0-3.436a1.147 1.147 0 0 0 0 2.291 1.147 1.147 0 0 0 0-2.291Z"/><path fill="#fff" d="M746.602 180.769c.969 0 1.71-.745 1.71-1.719 0-.973-.741-1.718-1.71-1.718-.97 0-1.711.745-1.711 1.718 0 .974.741 1.719 1.711 1.719Z"/><path fill="#5EA4E3" d="M746.601 181.34a2.293 2.293 0 0 1-2.281-2.291 2.293 2.293 0 0 1 2.281-2.291 2.292 2.292 0 0 1 2.281 2.291 2.292 2.292 0 0 1-2.281 2.291Zm0-3.437a1.147 1.147 0 0 0 0 2.291 1.146 1.146 0 0 0 0-2.291Z"/><path fill="#fff" d="M524.773 194.507c.97 0 1.711-.745 1.711-1.718 0-.974-.741-1.719-1.711-1.719-.969 0-1.711.745-1.711 1.719 0 .973.742 1.718 1.711 1.718Z"/><path fill="#5EA4E3" d="M524.773 195.082a2.293 2.293 0 0 1-2.281-2.291 2.293 2.293 0 0 1 2.281-2.291 2.292 2.292 0 0 1 2.281 2.291 2.292 2.292 0 0 1-2.281 2.291Zm0-3.437a1.147 1.147 0 0 0 0 2.291 1.147 1.147 0 0 0 0-2.291Z"/><path fill="#fff" d="M775.742 221.999c.969 0 1.711-.745 1.711-1.718 0-.974-.742-1.719-1.711-1.719-.969 0-1.711.745-1.711 1.719a1.72 1.72 0 0 0 1.711 1.718Z"/><path fill="#5EA4E3" d="M775.742 222.574a2.292 2.292 0 0 1-2.281-2.291 2.292 2.292 0 0 1 2.281-2.291 2.292 2.292 0 0 1 2.281 2.291 2.292 2.292 0 0 1-2.281 2.291Zm0-3.436a1.147 1.147 0 0 0 0 2.291 1.147 1.147 0 0 0 0-2.291Z"/><path fill="#fff" d="M650.801 221.999c.969 0 1.71-.745 1.71-1.718 0-.974-.741-1.719-1.71-1.719-.97 0-1.711.745-1.711 1.719 0 .973.741 1.718 1.711 1.718Z"/><path fill="#5EA4E3" d="M650.801 222.574a2.292 2.292 0 0 1-2.281-2.291 2.292 2.292 0 0 1 2.281-2.291 2.293 2.293 0 0 1 2.281 2.291 2.293 2.293 0 0 1-2.281 2.291Zm0-3.436a1.146 1.146 0 0 0 0 2.291 1.147 1.147 0 0 0 0-2.291Z"/><path fill="#fff" d="M1295.76 188.211c5.02 0 9.12-4.124 9.12-9.164s-4.1-9.164-9.12-9.164-9.13 4.124-9.13 9.164 4.11 9.164 9.13 9.164Z"/><path fill="#E6F5FF" d="M1300.32 179.047a9.154 9.154 0 0 0-6.85-8.878c.75-.172 1.49-.286 2.29-.286 5.01 0 9.12 4.123 9.12 9.164 0 5.04-4.11 9.164-9.12 9.164-.8 0-1.54-.115-2.29-.287a9.154 9.154 0 0 0 6.85-8.877Z"/><path fill="#E6F5FF" d="M1295.76 188.783c-.8 0-1.6-.114-2.4-.343-.23-.058-.46-.287-.46-.573 0-.287.18-.516.46-.573 3.76-.974 6.39-4.41 6.39-8.305 0-3.894-2.63-7.331-6.39-8.305-.23-.057-.46-.286-.46-.572 0-.287.18-.516.46-.573.8-.229 1.65-.344 2.4-.344 5.36 0 9.69 4.353 9.69 9.737s-4.33 9.851-9.69 9.851Zm0-1.145c4.73 0 8.55-3.838 8.55-8.591 0-4.754-3.82-8.592-8.55-8.592 3.13 1.661 5.13 4.926 5.13 8.592 0 3.665-2.05 6.93-5.13 8.591Z"/><path fill="#5EA4E3" d="M1295.76 193.364c-.35 0-.57-.229-.57-.573v-9.164c0-.343.22-.572.57-.572.34 0 .57.229.57.572v9.164c0 .344-.23.573-.57.573Z"/><path fill="#5EA4E3" d="M1295.75 188.786c-5.36 0-9.69-4.353-9.69-9.737s4.33-9.737 9.69-9.737c5.37 0 9.7 4.353 9.7 9.737s-4.33 9.737-9.7 9.737Zm0-18.328c-4.73 0-8.55 3.837-8.55 8.591s3.82 8.591 8.55 8.591c4.74 0 8.56-3.837 8.56-8.591s-3.82-8.591-8.56-8.591ZM636.543 83.4h-41.059c-.342 0-.57-.23-.57-.573 0-.344.228-.573.57-.573h41.059c.342 0 .57.229.57.573 0 .343-.228.572-.57.572Z"/><path fill="#E6F5FF" d="M615.445 69.079v-5.727h-.57l-1.141 5.727-20.529 13.746h13.686l8.554-13.746Z"/><path fill="#E6F5FF" d="M606.89 83.4h-13.686c-.228 0-.456-.172-.57-.4-.057-.23 0-.516.228-.63l20.358-13.632 1.083-5.499a.557.557 0 0 1 .571-.458h.57c.342 0 .57.23.57.573v5.728c0 .114-.057.229-.114.286l-8.554 13.746c-.057.172-.285.286-.456.286Zm-11.804-1.145h11.462l8.326-13.345v-2.635l-.571 2.921c-.057.172-.114.286-.228.344l-18.989 12.715Z"/><path fill="#5EA4E3" d="M616.014 61.06c-.342 0-.571-.23-.571-.573v-9.164c0-.344.229-.573.571-.573.342 0 .571.23.571.573v9.164c0 .343-.229.572-.571.572ZM638.824 83.4h-45.62c-.228 0-.456-.172-.57-.4-.057-.23 0-.516.228-.63l20.358-13.804 1.083-5.327a.557.557 0 0 1 .571-.458h2.281c.285 0 .513.172.57.458l1.083 5.327 20.358 13.803c.229.115.286.401.229.63-.114.23-.343.401-.571.401Zm-43.738-1.145H637l-18.99-12.887c-.114-.057-.228-.23-.228-.344l-1.026-5.097h-1.369l-1.027 5.097c-.057.172-.114.287-.228.344l-19.046 12.887Z"/><path fill="#fff" d="M616.013 65.641c1.597 0 2.852-1.26 2.852-2.863 0-1.604-1.255-2.864-2.852-2.864-1.596 0-2.851 1.26-2.851 2.864 0 1.604 1.255 2.863 2.851 2.863Z"/><path fill="#E6F5FF" d="M614.873 62.782c0-1.26.856-2.349 1.996-2.75-.285-.114-.57-.114-.855-.114-1.597 0-2.852 1.26-2.852 2.864 0 1.603 1.255 2.863 2.852 2.863.285 0 .57-.057.855-.114-1.14-.401-1.996-1.49-1.996-2.75Z"/><path fill="#E6F5FF" d="M616.013 66.217c-1.881 0-3.421-1.547-3.421-3.437s1.54-3.436 3.421-3.436c.343 0 .685.057 1.027.172.228.057.399.286.399.572 0 .23-.171.459-.399.573-.97.286-1.597 1.203-1.597 2.176 0 .974.627 1.89 1.597 2.177.228.057.399.286.399.573 0 .229-.171.458-.399.572-.342 0-.684.058-1.027.058Zm-1.026-5.499c-.741.401-1.255 1.146-1.255 2.062 0 .917.514 1.661 1.255 2.062-.399-.573-.684-1.26-.684-2.062 0-.802.228-1.489.684-2.062Z"/><path fill="#5EA4E3" d="M616.013 66.217c-1.881 0-3.421-1.547-3.421-3.437s1.54-3.436 3.421-3.436c1.882 0 3.422 1.546 3.422 3.436s-1.54 3.437-3.422 3.437Zm0-5.728a2.293 2.293 0 0 0-2.281 2.291 2.293 2.293 0 0 0 2.281 2.291 2.292 2.292 0 0 0 2.281-2.29 2.292 2.292 0 0 0-2.281-2.292Z"/><path fill="#E6F5FF" d="M1126.96 87.98c-12.89 0-23.38-10.538-23.38-23.482 0-12.944 10.49-23.482 23.38-23.482 12.89 0 23.38 10.538 23.38 23.482 0 12.944-10.49 23.483-23.38 23.483Zm0-45.819c-12.26 0-22.24 10.023-22.24 22.337s9.98 22.337 22.24 22.337c12.26 0 22.24-10.023 22.24-22.337s-9.98-22.337-22.24-22.337Z"/><path fill="url(#b)" d="M0 0h91v1440H0z" transform="matrix(0 -1 -1 0 1439.5 273)"/><path fill="url(#c)" d="M0-.406h89.875v273.19H0z"/><path fill="url(#d)" d="M0 0h89.875v273.19H0z" transform="matrix(-1 0 0 1 1440 -.406)"/></g><defs><linearGradient id="b" x1="0" x2="91" y1="720" y2="720" gradientUnits="userSpaceOnUse"><stop stop-color="#FAFBFE"/><stop offset="1" stop-color="#FAFBFE" stop-opacity="0"/></linearGradient><linearGradient id="c" x1="0" x2="89.875" y1="136.189" y2="136.189" gradientUnits="userSpaceOnUse"><stop stop-color="#FAFBFE"/><stop offset="1" stop-color="#FAFBFE" stop-opacity="0"/></linearGradient><linearGradient id="d" x1="0" x2="89.875" y1="136.595" y2="136.595" gradientUnits="userSpaceOnUse"><stop stop-color="#FAFBFE"/><stop offset="1" stop-color="#FAFBFE" stop-opacity="0"/></linearGradient><clipPath id="a"><path fill="#fff" d="M0 0h1440v273H0z"/></clipPath></defs></svg>
