<?xml version="1.0" encoding="UTF-8"?>
<svg width="360px" height="303px" viewBox="0 0 360 303" version="1.1" xmlns="http://www.w3.org/2000/svg" xmlns:xlink="http://www.w3.org/1999/xlink">
    <!-- Generator: Sketch 48.2 (47327) - http://www.bohemiancoding.com/sketch -->
    <title>Artboard 2</title>
    <desc>Created with Sketch.</desc>
    <defs>
        <rect id="path-1" x="6" y="3" width="345" height="289" rx="4"></rect>
        <rect id="path-2" x="57" y="77" width="245" height="170" rx="5"></rect>
        <filter x="-1.8%" y="-2.6%" width="107.3%" height="110.6%" filterUnits="objectBoundingBox" id="filter-3">
            <feOffset dx="5" dy="5" in="SourceAlpha" result="shadowOffsetOuter1"></feOffset>
            <feGaussianBlur stdDeviation="2" in="shadowOffsetOuter1" result="shadowBlurOuter1"></feGaussianBlur>
            <feComposite in="shadowBlurOuter1" in2="SourceAlpha" operator="out" result="shadowBlurOuter1"></feComposite>
            <feColorMatrix values="0 0 0 0 0.956862745   0 0 0 0 0.960784314   0 0 0 0 0.964705882  0 0 0 1 0" type="matrix" in="shadowBlurOuter1"></feColorMatrix>
        </filter>
        <rect id="path-4" x="0" y="0" width="97" height="49" rx="2"></rect>
    </defs>
    <g id="Page-1" stroke="none" stroke-width="1" fill="none" fill-rule="evenodd">
        <g id="Artboard-2">
            <g id="Group" transform="translate(2.000000, 2.000000)">
                <g id="Rectangle">
                    <use fill="#FFFFFF" fill-rule="evenodd" xlink:href="#path-1"></use>
                    <rect stroke="#DCE1E4" stroke-width="3" x="7.5" y="4.5" width="342" height="286" rx="4"></rect>
                </g>
                <rect id="Rectangle-2" fill="#DCE1E4" opacity="0.300000012" x="9" y="39" width="339" height="5"></rect>
                <g id="Rectangle-3">
                    <use fill="black" fill-opacity="1" filter="url(#filter-3)" xlink:href="#path-2"></use>
                    <use fill="#FFFFFF" fill-rule="evenodd" xlink:href="#path-2"></use>
                    <rect stroke="#DCE1E4" stroke-width="3" x="58.5" y="78.5" width="242" height="167" rx="5"></rect>
                </g>
                <circle id="Oval" stroke="#DCE1E4" stroke-width="3" fill="#FFFFFF" cx="8" cy="8" r="8"></circle>
                <circle id="Oval-Copy-2" stroke="#DCE1E4" stroke-width="3" fill="#FFFFFF" cx="8" cy="290" r="8"></circle>
                <circle id="Oval-Copy-3" stroke="#DCE1E4" stroke-width="3" fill="#FFFFFF" cx="347" cy="290" r="8"></circle>
                <circle id="Oval-Copy" stroke="#DCE1E4" stroke-width="3" fill="#FFFFFF" cx="347" cy="8" r="8"></circle>
                <g id="Group-5" transform="translate(84.000000, 109.000000)">
                    <g id="Group-2" transform="translate(0.000000, 60.000000)" fill="#509EE3" fill-opacity="0.206408514">
                        <rect id="Rectangle-4-Copy-2" x="0" y="0" width="185" height="49" rx="2"></rect>
                        <path d="M0.971247006,39.4260104 L15.1162217,30.9417007 L42.3409062,27.6668594 L80.1969759,25.3510432 L126.685214,30.9417007 L157.897413,17.0507909 L184.151276,6.20643053 L184.958819,46.2166294 C184.981108,47.320974 184.103929,48.2342913 182.999584,48.2565807 C182.986133,48.2568522 182.97268,48.256988 182.959226,48.256988 L2,48.256988 C0.8954305,48.256988 -1.79143308e-13,47.3615575 -1.90070182e-13,46.256988 L1.4077628e-13,41.1411393 C1.73141157e-13,40.4385145 0.368700895,39.7874241 0.971247006,39.4260104 Z" id="Rectangle-4-Copy-3" opacity="0.900000036"></path>
                    </g>
                    <g id="Group-4">
                        <g id="Rectangle-6-+-Rectangle-6-Copy-+-Rectangle-6-Copy-2-+-Rectangle-6-Copy-4-+-Rectangle-6-Copy-3-Mask">
                            <mask id="mask-5" fill="white">
                                <use xlink:href="#path-4"></use>
                            </mask>
                            <use id="Mask" fill-opacity="0.206408514" fill="#509EE3" xlink:href="#path-4"></use>
                            <rect id="Rectangle-6" fill="#C1DCF5" mask="url(#mask-5)" x="0" y="14.2916667" width="6.0625" height="34.7083333"></rect>
                            <rect id="Rectangle-6-Copy" fill="#C1DCF5" mask="url(#mask-5)" x="18.1875" y="28.5833333" width="6.0625" height="20.4166667"></rect>
                            <rect id="Rectangle-6-Copy-2" fill="#C1DCF5" mask="url(#mask-5)" x="36.375" y="20.4166667" width="6.0625" height="28.5833333"></rect>
                            <rect id="Rectangle-6-Copy-4" fill="#C1DCF5" mask="url(#mask-5)" x="72.75" y="20.4166667" width="6.0625" height="28.5833333"></rect>
                            <rect id="Rectangle-6-Copy-3" fill="#C1DCF5" mask="url(#mask-5)" x="54.5625" y="6.125" width="6.0625" height="42.875"></rect>
                        </g>
                        <rect id="Rectangle-6-Copy-5" fill="#C1DCF5" x="92" y="20" width="6" height="29"></rect>
                    </g>
                    <g id="Group-3" transform="translate(114.000000, 0.000000)">
                        <rect id="Rectangle-4-Copy" fill="#DBEBF9" x="0" y="0" width="72" height="49" rx="2"></rect>
                        <path d="M50.1898049,14.2534751 C51.9690652,17.0534435 53,20.3784109 53,23.9449031 C53,27.6894997 51.8635281,31.1678465 49.917682,34.0518446 L42.5292502,26.6634128 C42.8339492,25.8144692 43,24.8991371 43,23.9449031 C43,23.1828084 42.8940871,22.4455267 42.6962202,21.7470598 L50.1898049,14.2534751 Z M47.6594275,11.1096829 L40.5771859,18.1919245 C39.5950255,17.2337707 38.3683556,16.5264904 37,16.173222 L37,6 C41.137864,6.45881779 44.8529972,8.32453194 47.6594275,11.1096829 Z M47.3186109,37.1096278 C44.0985804,40.1423695 39.7655646,42 35,42 C25.0588745,42 17,33.9164578 17,23.9449031 C17,14.6514359 24.0000991,6.99793387 33,6 L33,16.173222 C29.5495456,17.064026 27,20.205814 27,23.9449031 C27,28.3767052 30.581722,31.9693906 35,31.9693906 C36.9985142,31.9693906 38.8258679,31.2343225 40.2280041,30.019021 L47.3186109,37.1096278 Z" id="Combined-Shape" fill="#C1DCF5"></path>
                    </g>
                </g>
            </g>
        </g>
    </g>
</svg>