<svg width="1200" height="628" viewBox="0 0 1200 628" fill="none" xmlns="http://www.w3.org/2000/svg">
<rect width="1200" height="628" fill="#F1F2F4"/>
<g clip-path="url(#clip0_101_2987)">
<path d="M777.645 464C860.488 464 927.645 396.843 927.645 314C927.645 231.157 860.488 164 777.645 164C694.802 164 627.645 231.157 627.645 314C627.645 396.843 694.802 464 777.645 464Z" fill="#509EE3"/>
<path d="M894.833 312.828C894.833 378.196 841.841 431.187 776.473 431.187C711.105 431.187 658.114 378.196 658.114 312.828C658.114 247.46 711.105 194.469 776.473 194.469C841.841 194.469 894.833 247.46 894.833 312.828Z" fill="#1C6BB0" fill-opacity="0.45"/>
<path d="M747.551 266.948H744.644C744.309 266.948 744.037 266.864 743.831 266.697C743.624 266.529 743.469 266.315 743.366 266.057L740.769 259.352H728.309L725.713 266.057C725.622 266.29 725.467 266.496 725.247 266.677C725.028 266.858 724.757 266.948 724.434 266.948H721.527L732.63 239.18H736.448L747.551 266.948ZM729.356 256.64H739.723L735.363 245.342C735.078 244.645 734.801 243.773 734.529 242.727C734.387 243.256 734.245 243.747 734.103 244.199C733.974 244.638 733.845 245.026 733.715 245.362L729.356 256.64Z" fill="white"/>
<path d="M755.503 266.948H751.744V239.18H755.503V266.948Z" fill="white"/>
<path d="M782.502 261.213C782.708 261.213 782.896 261.297 783.063 261.465L784.536 263.073C783.399 264.391 782.017 265.418 780.389 266.154C778.775 266.89 776.824 267.259 774.537 267.259C772.535 267.259 770.72 266.916 769.092 266.231C767.465 265.534 766.076 264.565 764.926 263.325C763.776 262.072 762.885 260.573 762.252 258.829C761.619 257.085 761.302 255.167 761.302 253.074C761.302 250.981 761.638 249.063 762.31 247.319C762.995 245.575 763.951 244.076 765.178 242.823C766.405 241.57 767.871 240.601 769.577 239.917C771.295 239.219 773.187 238.87 775.254 238.87C777.295 238.87 779.052 239.187 780.525 239.82C782.011 240.453 783.328 241.312 784.478 242.397L783.257 244.122C783.167 244.251 783.063 244.361 782.947 244.451C782.831 244.529 782.663 244.567 782.443 244.567C782.275 244.567 782.095 244.509 781.901 244.393C781.72 244.264 781.5 244.109 781.242 243.928C780.984 243.747 780.68 243.553 780.331 243.347C779.982 243.14 779.569 242.946 779.091 242.765C778.613 242.584 778.058 242.436 777.425 242.32C776.792 242.19 776.062 242.126 775.235 242.126C773.749 242.126 772.386 242.384 771.146 242.901C769.919 243.405 768.86 244.128 767.968 245.071C767.077 246.014 766.379 247.164 765.876 248.52C765.385 249.877 765.139 251.395 765.139 253.074C765.139 254.805 765.385 256.349 765.876 257.705C766.379 259.062 767.058 260.212 767.91 261.155C768.776 262.085 769.796 262.795 770.972 263.286C772.147 263.777 773.413 264.022 774.77 264.022C775.597 264.022 776.339 263.977 776.998 263.887C777.657 263.783 778.264 263.628 778.82 263.422C779.388 263.215 779.911 262.957 780.389 262.647C780.88 262.324 781.371 261.943 781.862 261.503C782.082 261.31 782.295 261.213 782.502 261.213Z" fill="white"/>
<path d="M793.588 256.562V266.948H789.848V239.18H798.045C799.802 239.18 801.326 239.387 802.618 239.8C803.923 240.201 805.002 240.776 805.854 241.525C806.707 242.274 807.34 243.179 807.753 244.238C808.18 245.297 808.393 246.479 808.393 247.784C808.393 249.076 808.167 250.258 807.714 251.33C807.262 252.402 806.597 253.326 805.719 254.101C804.853 254.876 803.774 255.483 802.483 255.923C801.191 256.349 799.712 256.562 798.045 256.562H793.588ZM793.588 253.578H798.045C799.117 253.578 800.06 253.436 800.874 253.152C801.701 252.867 802.392 252.473 802.948 251.97C803.503 251.453 803.923 250.839 804.207 250.129C804.491 249.418 804.633 248.637 804.633 247.784C804.633 246.014 804.084 244.632 802.986 243.637C801.901 242.643 800.254 242.145 798.045 242.145H793.588V253.578Z" fill="white"/>
<path d="M833.312 266.948H830.405C830.069 266.948 829.798 266.864 829.591 266.697C829.385 266.529 829.23 266.315 829.126 266.057L826.53 259.352H814.07L811.473 266.057C811.383 266.29 811.228 266.496 811.008 266.677C810.789 266.858 810.517 266.948 810.195 266.948H807.288L818.391 239.18H822.209L833.312 266.948ZM815.116 256.64H825.483L821.123 245.342C820.839 244.645 820.562 243.773 820.29 242.727C820.148 243.256 820.006 243.747 819.864 244.199C819.735 244.638 819.606 245.026 819.476 245.362L815.116 256.64Z" fill="white"/>
<path d="M717.425 308.541C717.106 309.051 716.766 309.433 716.405 309.688C716.065 309.943 715.619 310.071 715.066 310.071C714.577 310.071 714.046 309.922 713.472 309.624C712.92 309.306 712.282 308.955 711.559 308.572C710.858 308.19 710.05 307.85 709.137 307.552C708.223 307.234 707.181 307.074 706.012 307.074C703.993 307.074 702.484 307.51 701.486 308.381C700.508 309.231 700.019 310.39 700.019 311.856C700.019 312.791 700.317 313.567 700.912 314.183C701.507 314.8 702.283 315.331 703.239 315.777C704.217 316.223 705.322 316.638 706.554 317.02C707.808 317.382 709.083 317.796 710.38 318.264C711.676 318.71 712.941 319.241 714.173 319.858C715.427 320.474 716.533 321.26 717.489 322.217C718.467 323.173 719.253 324.342 719.848 325.723C720.443 327.084 720.741 328.731 720.741 330.665C720.741 332.811 720.369 334.82 719.625 336.69C718.881 338.56 717.797 340.197 716.373 341.599C714.97 342.981 713.228 344.075 711.145 344.883C709.083 345.669 706.735 346.062 704.1 346.062C702.654 346.062 701.177 345.914 699.668 345.616C698.181 345.319 696.736 344.904 695.333 344.373C693.93 343.82 692.612 343.172 691.38 342.428C690.147 341.684 689.074 340.855 688.16 339.942L691.348 334.905C691.603 334.543 691.932 334.246 692.336 334.012C692.761 333.757 693.218 333.63 693.707 333.63C694.345 333.63 694.982 333.831 695.62 334.235C696.279 334.639 697.012 335.085 697.819 335.574C698.648 336.063 699.594 336.509 700.657 336.913C701.719 337.317 702.973 337.519 704.418 337.519C706.374 337.519 707.893 337.094 708.977 336.244C710.061 335.372 710.603 334.001 710.603 332.131C710.603 331.047 710.305 330.165 709.71 329.485C709.115 328.805 708.329 328.242 707.351 327.796C706.395 327.349 705.3 326.956 704.068 326.616C702.835 326.276 701.571 325.904 700.274 325.5C698.978 325.075 697.713 324.565 696.481 323.97C695.248 323.354 694.143 322.557 693.165 321.579C692.209 320.58 691.433 319.348 690.838 317.881C690.243 316.393 689.945 314.566 689.945 312.398C689.945 310.655 690.296 308.955 690.997 307.297C691.699 305.64 692.729 304.162 694.09 302.866C695.45 301.57 697.118 300.539 699.095 299.774C701.071 298.987 703.335 298.594 705.885 298.594C707.309 298.594 708.69 298.711 710.029 298.945C711.389 299.157 712.675 299.487 713.887 299.933C715.098 300.358 716.224 300.879 717.266 301.495C718.328 302.09 719.274 302.77 720.103 303.536L717.425 308.541Z" fill="white"/>
<path d="M772.653 322.312C772.653 325.67 772.069 328.794 770.9 331.685C769.752 334.575 768.127 337.094 766.023 339.24C763.919 341.366 761.379 343.034 758.403 344.245C755.449 345.457 752.166 346.062 748.553 346.062C744.94 346.062 741.646 345.457 738.67 344.245C735.695 343.034 733.144 341.366 731.019 339.24C728.915 337.094 727.279 334.575 726.11 331.685C724.962 328.794 724.388 325.67 724.388 322.312C724.388 318.954 724.962 315.83 726.11 312.94C727.279 310.05 728.915 307.542 731.019 305.416C733.144 303.291 735.695 301.623 738.67 300.411C741.646 299.2 744.94 298.594 748.553 298.594C752.166 298.594 755.449 299.211 758.403 300.443C761.379 301.655 763.919 303.323 766.023 305.448C768.127 307.574 769.752 310.081 770.9 312.972C772.069 315.862 772.653 318.976 772.653 322.312ZM761.623 322.312C761.623 320.017 761.326 317.956 760.731 316.128C760.136 314.279 759.275 312.717 758.148 311.442C757.043 310.166 755.683 309.189 754.068 308.509C752.453 307.829 750.614 307.489 748.553 307.489C746.47 307.489 744.61 307.829 742.974 308.509C741.359 309.189 739.988 310.166 738.861 311.442C737.756 312.717 736.906 314.279 736.311 316.128C735.716 317.956 735.418 320.017 735.418 322.312C735.418 324.629 735.716 326.712 736.311 328.561C736.906 330.388 737.756 331.94 738.861 333.215C739.988 334.49 741.359 335.468 742.974 336.148C744.61 336.807 746.47 337.136 748.553 337.136C750.614 337.136 752.453 336.807 754.068 336.148C755.683 335.468 757.043 334.49 758.148 333.215C759.275 331.94 760.136 330.388 760.731 328.561C761.326 326.712 761.623 324.629 761.623 322.312Z" fill="white"/>
<path d="M810.3 333.534C810.555 333.534 810.81 333.587 811.065 333.693C811.32 333.778 811.564 333.938 811.798 334.171L816.07 338.666C814.2 341.111 811.851 342.959 809.025 344.213C806.219 345.446 802.893 346.062 799.046 346.062C795.518 346.062 792.352 345.467 789.546 344.277C786.762 343.066 784.393 341.408 782.437 339.304C780.503 337.179 779.016 334.671 777.974 331.781C776.933 328.869 776.412 325.713 776.412 322.312C776.412 318.848 776.975 315.671 778.102 312.78C779.228 309.869 780.812 307.361 782.852 305.257C784.892 303.153 787.336 301.517 790.184 300.348C793.032 299.179 796.167 298.594 799.588 298.594C801.331 298.594 802.968 298.754 804.498 299.072C806.049 299.37 807.494 299.795 808.833 300.348C810.172 300.879 811.405 301.527 812.531 302.292C813.658 303.057 814.657 303.886 815.528 304.779L811.894 309.656C811.66 309.954 811.384 310.23 811.065 310.485C810.746 310.719 810.3 310.836 809.726 310.836C809.343 310.836 808.982 310.751 808.642 310.581C808.302 310.411 807.941 310.209 807.558 309.975C807.176 309.72 806.751 309.454 806.283 309.178C805.837 308.881 805.295 308.615 804.657 308.381C804.041 308.126 803.308 307.914 802.458 307.744C801.629 307.574 800.651 307.489 799.525 307.489C797.739 307.489 796.103 307.818 794.615 308.477C793.149 309.136 791.874 310.103 790.79 311.378C789.727 312.632 788.898 314.183 788.303 316.032C787.729 317.86 787.442 319.953 787.442 322.312C787.442 324.693 787.761 326.807 788.399 328.656C789.058 330.505 789.94 332.067 791.045 333.343C792.171 334.597 793.478 335.553 794.966 336.212C796.454 336.871 798.048 337.2 799.748 337.2C800.725 337.2 801.618 337.157 802.426 337.072C803.233 336.966 803.988 336.807 804.689 336.594C805.39 336.36 806.049 336.063 806.666 335.702C807.282 335.319 807.909 334.841 808.546 334.267C808.801 334.055 809.078 333.885 809.375 333.757C809.673 333.608 809.981 333.534 810.3 333.534Z" fill="white"/>
<path d="M862.149 336.626C863.212 336.626 864.051 336.924 864.668 337.519C865.284 338.093 865.592 338.858 865.592 339.814V345.552H832.948V342.364C832.948 341.748 833.076 341.089 833.331 340.388C833.586 339.687 834.032 339.049 834.669 338.475L848.059 324.99C849.206 323.843 850.205 322.748 851.055 321.707C851.906 320.665 852.607 319.645 853.159 318.646C853.712 317.626 854.126 316.617 854.403 315.618C854.679 314.598 854.817 313.524 854.817 312.398C854.817 310.549 854.371 309.136 853.478 308.158C852.607 307.159 851.268 306.66 849.461 306.66C847.995 306.66 846.752 307.053 845.732 307.839C844.733 308.604 844.042 309.561 843.659 310.708C843.213 311.877 842.629 312.653 841.906 313.036C841.183 313.418 840.153 313.503 838.814 313.291L833.586 312.366C833.926 310.05 834.574 308.03 835.53 306.309C836.508 304.588 837.709 303.153 839.133 302.005C840.578 300.858 842.225 300.008 844.074 299.455C845.923 298.881 847.91 298.594 850.035 298.594C852.331 298.594 854.392 298.934 856.22 299.614C858.069 300.273 859.642 301.198 860.938 302.388C862.234 303.578 863.223 305.002 863.903 306.66C864.604 308.296 864.955 310.103 864.955 312.079C864.955 313.779 864.71 315.352 864.222 316.797C863.754 318.242 863.106 319.624 862.277 320.942C861.448 322.238 860.481 323.503 859.376 324.735C858.292 325.947 857.134 327.179 855.901 328.433L846.815 337.742C847.984 337.381 849.143 337.104 850.29 336.913C851.438 336.722 852.501 336.626 853.478 336.626H862.149Z" fill="white"/>
<path d="M740.588 368.293V372.673H733.886V392.108H728.362V372.673H721.66V368.293H740.588Z" fill="white"/>
<path d="M756.365 383.053V392.108H750.841V383.053L742.21 368.293H747.081C747.561 368.293 747.942 368.407 748.225 368.636C748.509 368.854 748.737 369.137 748.912 369.486L752.279 376.417C752.551 376.972 752.802 377.484 753.031 377.953C753.26 378.422 753.461 378.885 753.636 379.342C753.799 378.874 753.995 378.405 754.224 377.937C754.453 377.468 754.698 376.961 754.96 376.417L758.294 369.486C758.359 369.344 758.447 369.203 758.556 369.061C758.675 368.92 758.806 368.794 758.948 368.685C759.1 368.565 759.269 368.473 759.454 368.407C759.651 368.331 759.863 368.293 760.092 368.293H764.996L756.365 383.053Z" fill="white"/>
<path d="M773.781 384.148V392.108H768.257V368.293H776.658C778.336 368.293 779.775 368.495 780.973 368.898C782.183 369.29 783.174 369.835 783.948 370.532C784.733 371.23 785.31 372.052 785.681 373C786.051 373.948 786.236 374.973 786.236 376.073C786.236 377.261 786.046 378.351 785.664 379.342C785.283 380.334 784.7 381.184 783.915 381.892C783.131 382.6 782.134 383.156 780.924 383.559C779.726 383.952 778.303 384.148 776.658 384.148H773.781ZM773.781 379.98H776.658C778.096 379.98 779.132 379.637 779.764 378.95C780.396 378.264 780.712 377.305 780.712 376.073C780.712 375.528 780.63 375.033 780.467 374.586C780.303 374.139 780.052 373.758 779.715 373.442C779.388 373.115 778.968 372.864 778.456 372.69C777.955 372.515 777.355 372.428 776.658 372.428H773.781V379.98Z" fill="white"/>
<path d="M806.069 368.293V372.543H796.295V378.1H803.781V382.186H796.295V387.858H806.069V392.108H790.738V368.293H806.069Z" fill="white"/>
<path d="M820.969 388.447H825.546V376.433C825.546 375.844 825.562 375.229 825.595 374.586L822.898 376.825C822.724 376.967 822.549 377.07 822.375 377.136C822.201 377.19 822.032 377.217 821.868 377.217C821.585 377.217 821.329 377.158 821.1 377.038C820.882 376.907 820.719 376.771 820.61 376.629L819.008 374.504L826.429 368.277H830.613V388.447H834.536V392.108H820.969V388.447Z" fill="white"/>
<path fill-rule="evenodd" clip-rule="evenodd" d="M850.158 285.208H704.359V283.474H850.158V285.208Z" fill="white"/>
<path d="M937.2 468.084L936.498 468.845L926.149 459.306L926.851 458.545L937.2 468.084Z" fill="white"/>
</g>
<path fill-rule="evenodd" clip-rule="evenodd" d="M339.472 271.013C347.611 271.013 354.209 264.371 354.209 256.178C354.209 247.985 347.611 241.343 339.472 241.343C331.333 241.343 324.734 247.985 324.734 256.178C324.734 264.371 331.333 271.013 339.472 271.013Z" fill="#509EE3"/>
<path fill-rule="evenodd" clip-rule="evenodd" d="M339.472 312.552C347.611 312.552 354.209 305.91 354.209 297.717C354.209 289.524 347.611 282.882 339.472 282.882C331.333 282.882 324.734 289.524 324.734 297.717C324.734 305.91 331.333 312.552 339.472 312.552Z" fill="#509EE3"/>
<path fill-rule="evenodd" clip-rule="evenodd" d="M380.736 312.955C388.875 312.955 395.473 306.313 395.473 298.12C395.473 289.927 388.875 283.285 380.736 283.285C372.597 283.285 365.999 289.927 365.999 298.12C365.999 306.313 372.597 312.955 380.736 312.955Z" fill="#509EE3"/>
<path fill-rule="evenodd" clip-rule="evenodd" d="M504.528 271.013C512.667 271.013 519.265 264.371 519.265 256.178C519.265 247.985 512.667 241.343 504.528 241.343C496.389 241.343 489.791 247.985 489.791 256.178C489.791 264.371 496.389 271.013 504.528 271.013Z" fill="#509EE3"/>
<path fill-rule="evenodd" clip-rule="evenodd" d="M463.264 312.955C471.403 312.955 478.001 306.313 478.001 298.12C478.001 289.927 471.403 283.285 463.264 283.285C455.125 283.285 448.527 289.927 448.527 298.12C448.527 306.313 455.125 312.955 463.264 312.955Z" fill="#509EE3"/>
<path fill-rule="evenodd" clip-rule="evenodd" d="M504.528 312.955C512.667 312.955 519.265 306.313 519.265 298.12C519.265 289.927 512.667 283.285 504.528 283.285C496.389 283.285 489.791 289.927 489.791 298.12C489.791 306.313 496.389 312.955 504.528 312.955Z" fill="#509EE3"/>
<path fill-rule="evenodd" clip-rule="evenodd" d="M339.472 354.089C347.611 354.089 354.209 347.447 354.209 339.254C354.209 331.061 347.611 324.419 339.472 324.419C331.333 324.419 324.734 331.061 324.734 339.254C324.734 347.447 331.333 354.089 339.472 354.089Z" fill="#509EE3"/>
<path fill-rule="evenodd" clip-rule="evenodd" d="M422 354.494C430.139 354.494 436.737 347.852 436.737 339.659C436.737 331.466 430.139 324.824 422 324.824C413.861 324.824 407.263 331.466 407.263 339.659C407.263 347.852 413.861 354.494 422 354.494Z" fill="#509EE3"/>
<path fill-rule="evenodd" clip-rule="evenodd" d="M504.528 354.494C512.667 354.494 519.265 347.852 519.265 339.659C519.265 331.466 512.667 324.824 504.528 324.824C496.389 324.824 489.791 331.466 489.791 339.659C489.791 347.852 496.389 354.494 504.528 354.494Z" fill="#509EE3"/>
<path fill-rule="evenodd" clip-rule="evenodd" d="M339.472 395.628C347.611 395.628 354.209 388.986 354.209 380.793C354.209 372.6 347.611 365.958 339.472 365.958C331.333 365.958 324.734 372.6 324.734 380.793C324.734 388.986 331.333 395.628 339.472 395.628Z" fill="#509EE3"/>
<path fill-rule="evenodd" clip-rule="evenodd" d="M504.528 396.031C512.667 396.031 519.265 389.389 519.265 381.196C519.265 373.003 512.667 366.361 504.528 366.361C496.389 366.361 489.791 373.003 489.791 381.196C489.791 389.389 496.389 396.031 504.528 396.031Z" fill="#509EE3"/>
<path fill-rule="evenodd" clip-rule="evenodd" d="M381.724 270.084C389.9 270.084 396.527 263.473 396.527 255.317C396.527 247.162 389.9 240.55 381.724 240.55C373.549 240.55 366.922 247.162 366.922 255.317C366.922 263.473 373.549 270.084 381.724 270.084Z" fill="#C2DAF0"/>
<path fill-rule="evenodd" clip-rule="evenodd" d="M423.172 270.084C431.347 270.084 437.974 263.473 437.974 255.317C437.974 247.162 431.347 240.55 423.172 240.55C414.996 240.55 408.369 247.162 408.369 255.317C408.369 263.473 414.996 270.084 423.172 270.084Z" fill="#C2DAF0"/>
<path fill-rule="evenodd" clip-rule="evenodd" d="M423.172 222.831C431.347 222.831 437.974 216.219 437.974 208.064C437.974 199.908 431.347 193.297 423.172 193.297C414.996 193.297 408.369 199.908 408.369 208.064C408.369 216.219 414.996 222.831 423.172 222.831Z" fill="#C2DAF0"/>
<path fill-rule="evenodd" clip-rule="evenodd" d="M423.172 311.833C431.347 311.833 437.974 305.221 437.974 297.066C437.974 288.91 431.347 282.299 423.172 282.299C414.996 282.299 408.369 288.91 408.369 297.066C408.369 305.221 414.996 311.833 423.172 311.833Z" fill="#C2DAF0"/>
<path fill-rule="evenodd" clip-rule="evenodd" d="M464.619 270.084C472.794 270.084 479.422 263.473 479.422 255.317C479.422 247.162 472.794 240.55 464.619 240.55C456.444 240.55 449.816 247.162 449.816 255.317C449.816 263.473 456.444 270.084 464.619 270.084Z" fill="#C2DAF0"/>
<path fill-rule="evenodd" clip-rule="evenodd" d="M381.724 353.181C389.9 353.181 396.527 346.569 396.527 338.414C396.527 330.258 389.9 323.647 381.724 323.647C373.549 323.647 366.922 330.258 366.922 338.414C366.922 346.569 373.549 353.181 381.724 353.181Z" fill="#C2DAF0"/>
<path fill-rule="evenodd" clip-rule="evenodd" d="M464.619 353.181C472.794 353.181 479.422 346.569 479.422 338.414C479.422 330.258 472.794 323.647 464.619 323.647C456.444 323.647 449.816 330.258 449.816 338.414C449.816 346.569 456.444 353.181 464.619 353.181Z" fill="#C2DAF0"/>
<path fill-rule="evenodd" clip-rule="evenodd" d="M381.724 394.529C389.9 394.529 396.527 387.917 396.527 379.762C396.527 371.606 389.9 364.995 381.724 364.995C373.549 364.995 366.922 371.606 366.922 379.762C366.922 387.917 373.549 394.529 381.724 394.529Z" fill="#C2DAF0"/>
<path fill-rule="evenodd" clip-rule="evenodd" d="M423.172 394.529C431.347 394.529 437.974 387.917 437.974 379.762C437.974 371.606 431.347 364.995 423.172 364.995C414.996 364.995 408.369 371.606 408.369 379.762C408.369 387.917 414.996 394.529 423.172 394.529Z" fill="#C2DAF0"/>
<path fill-rule="evenodd" clip-rule="evenodd" d="M423.172 435.875C431.347 435.875 437.974 429.263 437.974 421.108C437.974 412.952 431.347 406.341 423.172 406.341C414.996 406.341 408.369 412.952 408.369 421.108C408.369 429.263 414.996 435.875 423.172 435.875Z" fill="#C2DAF0"/>
<path fill-rule="evenodd" clip-rule="evenodd" d="M464.619 394.529C472.794 394.529 479.422 387.917 479.422 379.762C479.422 371.606 472.794 364.995 464.619 364.995C456.444 364.995 449.816 371.606 449.816 379.762C449.816 387.917 456.444 394.529 464.619 394.529Z" fill="#C2DAF0"/>
<defs>
<clipPath id="clip0_101_2987">
<rect width="300" height="300" fill="white" transform="translate(627.645 164)"/>
</clipPath>
</defs>
</svg>
